<svg version="1.1" viewBox="0.0 0.0 600.0 371.0" fill="none" stroke="none" stroke-linecap="square" stroke-miterlimit="10" width="600" height="371" xmlns:xlink="http://www.w3.org/1999/xlink" xmlns="http://www.w3.org/2000/svg"><path fill="#ffffff" d="M0 0L600.0 0L600.0 371.0L0 371.0L0 0Z" fill-rule="nonzero"/><path stroke="#cccccc" stroke-width="1.0" stroke-linecap="butt" d="M168.5 53.5L168.5 298.5" fill-rule="nonzero"/><path stroke="#cccccc" stroke-width="1.0" stroke-linecap="butt" d="M260.5 53.5L260.5 298.5" fill-rule="nonzero"/><path stroke="#cccccc" stroke-width="1.0" stroke-linecap="butt" d="M352.5 53.5L352.5 298.5" fill-rule="nonzero"/><path stroke="#cccccc" stroke-width="1.0" stroke-linecap="butt" d="M443.5 53.5L443.5 298.5" fill-rule="nonzero"/><path stroke="#cccccc" stroke-width="1.0" stroke-linecap="butt" d="M535.5 53.5L535.5 298.5" fill-rule="nonzero"/><path stroke="#333333" stroke-width="1.0" stroke-linecap="butt" d="M78.5 298.5L581.5 298.5" fill-rule="nonzero"/><path stroke="#cccccc" stroke-width="1.0" stroke-linecap="butt" d="M78.5 257.5L581.5 257.5" fill-rule="nonzero"/><path stroke="#cccccc" stroke-width="1.0" stroke-linecap="butt" d="M78.5 216.5L581.5 216.5" fill-rule="nonzero"/><path stroke="#cccccc" stroke-width="1.0" stroke-linecap="butt" d="M78.5 175.5L581.5 175.5" fill-rule="nonzero"/><path stroke="#cccccc" stroke-width="1.0" stroke-linecap="butt" d="M78.5 135.5L581.5 135.5" fill-rule="nonzero"/><path stroke="#cccccc" stroke-width="1.0" stroke-linecap="butt" d="M78.5 94.5L581.5 94.5" fill-rule="nonzero"/><path stroke="#cccccc" stroke-width="1.0" stroke-linecap="butt" d="M78.5 53.5L581.5 53.5" fill-rule="nonzero"/><clipPath id="id_0"><path d="M78.55 53.416668L581.45 53.416668L581.45 298.45L78.55 298.45L78.55 53.416668Z" clip-rule="nonzero"/></clipPath><path stroke="#ff9900" stroke-width="2.0" stroke-linecap="butt" stroke-opacity="0.4" clip-path="url(#id_0)" d="M0 203.82458L581.45 135.86539" fill-rule="nonzero"/><path fill="#ff9900" clip-path="url(#id_0)" d="M381.50058 216.77222C381.50058 219.2575 379.48587 221.27222 377.00058 221.27222C374.51532 221.27222 372.50058 219.2575 372.50058 216.77222C372.50058 214.28694 374.51532 212.27222 377.00058 212.27222C379.48587 212.27222 381.50058 214.28694 381.50058 216.77222Z" fill-rule="nonzero"/><path fill="#ff9900" clip-path="url(#id_0)" d="M89.9539 216.77222C89.9539 219.2575 87.939186 221.27222 85.4539 221.27222C82.96862 221.27222 80.9539 219.2575 80.9539 216.77222C80.9539 214.28694 82.96862 212.27222 85.4539 212.27222C87.939186 212.27222 89.9539 214.28694 89.9539 216.77222Z" fill-rule="nonzero"/><path fill="#ff9900" clip-path="url(#id_0)" d="M332.45108 216.77222C332.45108 219.2575 330.43634 221.27222 327.95108 221.27222C325.4658 221.27222 323.45108 219.2575 323.45108 216.77222C323.45108 214.28694 325.4658 212.27222 327.95108 212.27222C330.43634 212.27222 332.45108 214.28694 332.45108 216.77222Z" fill-rule="nonzero"/><path fill="#ff9900" clip-path="url(#id_0)" d="M264.14847 196.35278C264.14847 198.83806 262.13376 200.85278 259.64847 200.85278C257.16318 200.85278 255.14847 198.83806 255.14847 196.35278C255.14847 193.8675 257.16318 191.85278 259.64847 191.85278C262.13376 191.85278 264.14847 193.8675 264.14847 196.35278Z" fill-rule="nonzero"/><path fill="#ff9900" clip-path="url(#id_0)" d="M144.9627 196.35278C144.9627 198.83806 142.948 200.85278 140.4627 200.85278C137.97743 200.85278 135.9627 198.83806 135.9627 196.35278C135.9627 193.8675 137.97743 191.85278 140.4627 191.85278C142.948 191.85278 144.9627 193.8675 144.9627 196.35278Z" fill-rule="nonzero"/><path fill="#ff9900" clip-path="url(#id_0)" d="M131.66891 175.93333C131.66891 178.41861 129.6542 180.43333 127.168915 180.43333C124.68363 180.43333 122.668915 178.41861 122.668915 175.93333C122.668915 173.44806 124.68363 171.43333 127.168915 171.43333C129.6542 171.43333 131.66891 173.44806 131.66891 175.93333Z" fill-rule="nonzero"/><path fill="#ff9900" clip-path="url(#id_0)" d="M218.30779 175.93333C218.30779 178.41861 216.29308 180.43333 213.80779 180.43333C211.32251 180.43333 209.30779 178.41861 209.30779 175.93333C209.30779 173.44806 211.32251 171.43333 213.80779 171.43333C216.29308 171.43333 218.30779 173.44806 218.30779 175.93333Z" fill-rule="nonzero"/><path fill="#ff9900" clip-path="url(#id_0)" d="M338.41037 175.93333C338.41037 178.41861 336.39563 180.43333 333.91037 180.43333C331.42508 180.43333 329.41037 178.41861 329.41037 175.93333C329.41037 173.44806 331.42508 171.43333 333.91037 171.43333C336.39563 171.43333 338.41037 173.44806 338.41037 175.93333Z" fill-rule="nonzero"/><path fill="#ff9900" clip-path="url(#id_0)" d="M201.80515 175.93333C201.80515 178.41861 199.79044 180.43333 197.30515 180.43333C194.81987 180.43333 192.80515 178.41861 192.80515 175.93333C192.80515 173.44806 194.81987 171.43333 197.30515 171.43333C199.79044 171.43333 201.80515 173.44806 201.80515 175.93333Z" fill-rule="nonzero"/><path fill="#ff9900" clip-path="url(#id_0)" d="M311.82275 175.93333C311.82275 178.41861 309.80804 180.43333 307.32275 180.43333C304.8375 180.43333 302.82275 178.41861 302.82275 175.93333C302.82275 173.44806 304.8375 171.43333 307.32275 171.43333C309.80804 171.43333 311.82275 173.44806 311.82275 175.93333Z" fill-rule="nonzero"/><path fill="#ff9900" clip-path="url(#id_0)" d="M223.35027 175.93333C223.35027 178.41861 221.33554 180.43333 218.85027 180.43333C216.36499 180.43333 214.35027 178.41861 214.35027 175.93333C214.35027 173.44806 216.36499 171.43333 218.85027 171.43333C221.33554 171.43333 223.35027 173.44806 223.35027 175.93333Z" fill-rule="nonzero"/><path fill="#ff9900" clip-path="url(#id_0)" d="M342.536 175.93333C342.536 178.41861 340.5213 180.43333 338.036 180.43333C335.55075 180.43333 333.536 178.41861 333.536 175.93333C333.536 173.44806 335.55075 171.43333 338.036 171.43333C340.5213 171.43333 342.536 173.44806 342.536 175.93333Z" fill-rule="nonzero"/><path fill="#ff9900" clip-path="url(#id_0)" d="M304.02985 175.93333C304.02985 178.41861 302.01514 180.43333 299.52985 180.43333C297.04456 180.43333 295.02985 178.41861 295.02985 175.93333C295.02985 173.44806 297.04456 171.43333 299.52985 171.43333C302.01514 171.43333 304.02985 173.44806 304.02985 175.93333Z" fill-rule="nonzero"/><path fill="#ff9900" clip-path="url(#id_0)" d="M233.43521 155.51389C233.43521 157.99918 231.4205 160.01389 228.93521 160.01389C226.44994 160.01389 224.43521 157.99918 224.43521 155.51389C224.43521 153.02861 226.44994 151.01389 228.93521 151.01389C231.4205 151.01389 233.43521 153.02861 233.43521 155.51389Z" fill-rule="nonzero"/><path fill="#ff9900" clip-path="url(#id_0)" d="M435.1342 155.51389C435.1342 157.99918 433.11948 160.01389 430.6342 160.01389C428.1489 160.01389 426.1342 157.99918 426.1342 155.51389C426.1342 153.02861 428.1489 151.01389 430.6342 151.01389C433.11948 151.01389 435.1342 153.02861 435.1342 155.51389Z" fill-rule="nonzero"/><path fill="#ff9900" clip-path="url(#id_0)" d="M195.38745 155.51389C195.38745 157.99918 193.37274 160.01389 190.88745 160.01389C188.40218 160.01389 186.38745 157.99918 186.38745 155.51389C186.38745 153.02861 188.40218 151.01389 190.88745 151.01389C193.37274 151.01389 195.38745 153.02861 195.38745 155.51389Z" fill-rule="nonzero"/><path fill="#ff9900" clip-path="url(#id_0)" d="M306.3219 155.51389C306.3219 157.99918 304.30716 160.01389 301.8219 160.01389C299.3366 160.01389 297.3219 157.99918 297.3219 155.51389C297.3219 153.02861 299.3366 151.01389 301.8219 151.01389C304.30716 151.01389 306.3219 153.02861 306.3219 155.51389Z" fill-rule="nonzero"/><path fill="#ff9900" clip-path="url(#id_0)" d="M203.18037 135.09445C203.18037 137.57973 201.16565 139.59445 198.68037 139.59445C196.19508 139.59445 194.18037 137.57973 194.18037 135.09445C194.18037 132.60916 196.19508 130.59445 198.68037 130.59445C201.16565 130.59445 203.18037 132.60916 203.18037 135.09445Z" fill-rule="nonzero"/><path fill="#ff9900" clip-path="url(#id_0)" d="M470.4315 135.09445C470.4315 137.57973 468.41678 139.59445 465.9315 139.59445C463.44623 139.59445 461.4315 137.57973 461.4315 135.09445C461.4315 132.60916 463.44623 130.59445 465.9315 130.59445C468.41678 130.59445 470.4315 132.60916 470.4315 135.09445Z" fill-rule="nonzero"/><path fill="#ff9900" clip-path="url(#id_0)" d="M567.15533 135.09445C567.15533 137.57973 565.1406 139.59445 562.65533 139.59445C560.17004 139.59445 558.15533 137.57973 558.15533 135.09445C558.15533 132.60916 560.17004 130.59445 562.65533 130.59445C565.1406 130.59445 567.15533 132.60916 567.15533 135.09445Z" fill-rule="nonzero"/><path fill="#ff9900" clip-path="url(#id_0)" d="M458.0545 94.255554C458.0545 96.74084 456.0398 98.755554 453.5545 98.755554C451.06924 98.755554 449.0545 96.74084 449.0545 94.255554C449.0545 91.77027 451.06924 89.755554 453.5545 89.755554C456.0398 89.755554 458.0545 91.77027 458.0545 94.255554Z" fill-rule="nonzero"/><path fill="#424242" d="M287.98438 349.45L287.98438 340.91876L290.40625 340.91876Q291.51562 340.91876 292.35938 341.41876Q293.21875 341.90314 293.6875 342.8094Q294.15625 343.71564 294.15625 344.90314L294.15625 345.4344Q294.15625 346.65314 293.6875 347.5594Q293.23438 348.46564 292.35938 348.95Q291.5 349.4344 290.35938 349.45L287.98438 349.45ZM289.10938 341.84064L289.10938 348.52814L290.29688 348.52814Q291.59375 348.52814 292.3125 347.73126Q293.04688 346.91876 293.04688 345.41876L293.04688 344.91876Q293.04688 343.46564 292.35938 342.66876Q291.6875 341.85626 290.42188 341.84064L289.10938 341.84064ZM297.0 349.45L295.92188 349.45L295.92188 343.10626L297.0 343.10626L297.0 349.45ZM295.82812 341.4344Q295.82812 341.16876 295.98438 340.98126Q296.15625 340.79376 296.46875 340.79376Q296.78125 340.79376 296.9375 340.98126Q297.10938 341.16876 297.10938 341.4344Q297.10938 341.6844 296.9375 341.8719Q296.78125 342.04376 296.46875 342.04376Q296.15625 342.04376 295.98438 341.8719Q295.82812 341.6844 295.82812 341.4344ZM299.35938 349.45L299.35938 343.95L298.35938 343.95L298.35938 343.10626L299.35938 343.10626L299.35938 342.46564Q299.35938 341.4344 299.89062 340.8875Q300.4375 340.325 301.4375 340.325Q301.8125 340.325 302.1875 340.41876L302.125 341.3094Q301.84375 341.2469 301.54688 341.2469Q301.01562 341.2469 300.71875 341.5594Q300.4375 341.8719 300.4375 342.4344L300.4375 343.10626L301.79688 343.10626L301.79688 343.95L300.4375 343.95L300.4375 349.45L299.35938 349.45ZM303.35938 349.45L303.35938 343.95L302.35938 343.95L302.35938 343.10626L303.35938 343.10626L303.35938 342.46564Q303.35938 341.4344 303.89062 340.8875Q304.4375 340.325 305.4375 340.325Q305.8125 340.325 306.1875 340.41876L306.125 341.3094Q305.84375 341.2469 305.54688 341.2469Q305.01562 341.2469 304.71875 341.5594Q304.4375 341.8719 304.4375 342.4344L304.4375 343.10626L305.79688 343.10626L305.79688 343.95L304.4375 343.95L304.4375 349.45L303.35938 349.45ZM308.0 349.45L306.92188 349.45L306.92188 343.10626L308.0 343.10626L308.0 349.45ZM306.82812 341.4344Q306.82812 341.16876 306.98438 340.98126Q307.15625 340.79376 307.46875 340.79376Q307.78125 340.79376 307.9375 340.98126Q308.10938 341.16876 308.10938 341.4344Q308.10938 341.6844 307.9375 341.8719Q307.78125 342.04376 307.46875 342.04376Q307.15625 342.04376 306.98438 341.8719Q306.82812 341.6844 306.82812 341.4344ZM312.35938 348.6844Q312.9375 348.6844 313.375 348.34064Q313.8125 347.98126 313.85938 347.45L314.89062 347.45Q314.85938 347.9969 314.5 348.4969Q314.15625 348.98126 313.57812 349.27814Q313.01562 349.575 312.35938 349.575Q311.0625 349.575 310.29688 348.71564Q309.54688 347.84064 309.54688 346.34064L309.54688 346.15314Q309.54688 345.23126 309.875 344.5125Q310.21875 343.79376 310.84375 343.40314Q311.48438 342.9969 312.35938 342.9969Q313.42188 342.9969 314.125 343.6375Q314.84375 344.2625 314.89062 345.29376L313.85938 345.29376Q313.8125 344.66876 313.39062 344.27814Q312.96875 343.8875 312.35938 343.8875Q311.53125 343.8875 311.07812 344.48126Q310.625 345.075 310.625 346.2L310.625 346.40314Q310.625 347.4969 311.07812 348.09064Q311.53125 348.6844 312.35938 348.6844ZM319.73438 348.825Q319.10938 349.575 317.875 349.575Q316.85938 349.575 316.32812 348.98126Q315.79688 348.3875 315.79688 347.23126L315.79688 343.10626L316.875 343.10626L316.875 347.2Q316.875 348.65314 318.04688 348.65314Q319.29688 348.65314 319.70312 347.71564L319.70312 343.10626L320.79688 343.10626L320.79688 349.45L319.76562 349.45L319.73438 348.825ZM324.0 349.45L322.92188 349.45L322.92188 340.45L324.0 340.45L324.0 349.45ZM327.29688 341.575L327.29688 343.10626L328.46875 343.10626L328.46875 343.95L327.29688 343.95L327.29688 347.8719Q327.29688 348.2625 327.45312 348.45Q327.60938 348.6375 327.98438 348.6375Q328.17188 348.6375 328.5 348.575L328.5 349.45Q328.07812 349.575 327.67188 349.575Q326.95312 349.575 326.57812 349.1375Q326.20312 348.6844 326.20312 347.8719L326.20312 343.95L325.04688 343.95L325.04688 343.10626L326.20312 343.10626L326.20312 341.575L327.29688 341.575ZM331.89062 347.85626L333.375 343.10626L334.53125 343.10626L331.98438 350.4344Q331.39062 352.0125 330.10938 352.0125L329.89062 351.9969L329.5 351.91876L329.5 351.04376L329.78125 351.0594Q330.34375 351.0594 330.64062 350.84064Q330.95312 350.6219 331.15625 350.02814L331.39062 349.3719L329.125 343.10626L330.3125 343.10626L331.89062 347.85626ZM342.125 345.9969L340.10938 345.9969L340.10938 349.45L338.98438 349.45L338.98438 340.91876L341.8125 340.91876Q343.25 340.91876 344.01562 341.575Q344.79688 342.23126 344.79688 343.48126Q344.79688 344.27814 344.35938 344.8719Q343.9375 345.46564 343.17188 345.7625L345.17188 349.3719L345.17188 349.45L343.96875 349.45L342.125 345.9969ZM340.10938 345.075L341.84375 345.075Q342.6875 345.075 343.17188 344.65314Q343.67188 344.21564 343.67188 343.48126Q343.67188 342.7 343.20312 342.27814Q342.73438 341.85626 341.84375 341.84064L340.10938 341.84064L340.10938 345.075ZM349.73438 349.45Q349.64062 349.2625 349.57812 348.77814Q348.82812 349.575 347.78125 349.575Q346.84375 349.575 346.23438 349.04376Q345.64062 348.5125 345.64062 347.6844Q345.64062 346.7 346.39062 346.15314Q347.14062 345.60626 348.51562 345.60626L349.5625 345.60626L349.5625 345.10626Q349.5625 344.54376 349.21875 344.21564Q348.89062 343.8719 348.21875 343.8719Q347.64062 343.8719 347.25 344.16876Q346.85938 344.45 346.85938 344.8719L345.76562 344.8719Q345.76562 344.3875 346.09375 343.95Q346.4375 343.5125 347.01562 343.2625Q347.59375 342.9969 348.28125 342.9969Q349.39062 342.9969 350.0 343.54376Q350.625 344.09064 350.65625 345.04376L350.65625 347.96564Q350.65625 348.84064 350.875 349.35626L350.875 349.45L349.73438 349.45ZM347.9375 348.6219Q348.45312 348.6219 348.90625 348.35626Q349.35938 348.09064 349.5625 347.66876L349.5625 346.3719L348.71875 346.3719Q346.71875 346.3719 346.71875 347.54376Q346.71875 348.04376 347.0625 348.34064Q347.40625 348.6219 347.9375 348.6219ZM354.29688 341.575L354.29688 343.10626L355.46875 343.10626L355.46875 343.95L354.29688 343.95L354.29688 347.8719Q354.29688 348.2625 354.45312 348.45Q354.60938 348.6375 354.98438 348.6375Q355.17188 348.6375 355.5 348.575L355.5 349.45Q355.07812 349.575 354.67188 349.575Q353.95312 349.575 353.57812 349.1375Q353.20312 348.6844 353.20312 347.8719L353.20312 343.95L352.04688 343.95L352.04688 343.10626L353.20312 343.10626L353.20312 341.575L354.29688 341.575ZM358.0 349.45L356.92188 349.45L356.92188 343.10626L358.0 343.10626L358.0 349.45ZM356.82812 341.4344Q356.82812 341.16876 356.98438 340.98126Q357.15625 340.79376 357.46875 340.79376Q357.78125 340.79376 357.9375 340.98126Q358.10938 341.16876 358.10938 341.4344Q358.10938 341.6844 357.9375 341.8719Q357.78125 342.04376 357.46875 342.04376Q357.15625 342.04376 356.98438 341.8719Q356.82812 341.6844 356.82812 341.4344ZM360.84375 343.10626L360.875 343.90314Q361.60938 342.9969 362.78125 342.9969Q364.79688 342.9969 364.8125 345.2625L364.8125 349.45L363.71875 349.45L363.71875 345.2469Q363.71875 344.575 363.40625 344.2469Q363.10938 343.91876 362.45312 343.91876Q361.92188 343.91876 361.51562 344.2Q361.125 344.48126 360.90625 344.9344L360.90625 349.45L359.82812 349.45L359.82812 343.10626L360.84375 343.10626ZM366.5625 346.23126Q366.5625 344.7469 367.25 343.8719Q367.9375 342.9969 369.0625 342.9969Q370.21875 342.9969 370.875 343.8094L370.92188 343.10626L371.92188 343.10626L371.92188 349.29376Q371.92188 350.52814 371.1875 351.23126Q370.45312 351.95 369.23438 351.95Q368.54688 351.95 367.89062 351.65314Q367.23438 351.35626 366.89062 350.85626L367.45312 350.2Q368.14062 351.0594 369.15625 351.0594Q369.9375 351.0594 370.375 350.60626Q370.82812 350.16876 370.82812 349.35626L370.82812 348.8094Q370.17188 349.575 369.04688 349.575Q367.9375 349.575 367.25 348.6844Q366.5625 347.77814 366.5625 346.23126ZM367.65625 346.35626Q367.65625 347.41876 368.09375 348.04376Q368.53125 348.65314 369.32812 348.65314Q370.34375 348.65314 370.82812 347.71564L370.82812 344.825Q370.32812 343.91876 369.32812 343.91876Q368.54688 343.91876 368.09375 344.52814Q367.65625 345.1375 367.65625 346.35626Z" fill-rule="nonzero"/><path fill="#424242" d="M30.550013 197.69896L22.018763 197.69896L22.018763 195.27708Q22.018763 194.16771 22.518763 193.32396Q23.003138 192.46458 23.909388 191.99583Q24.815638 191.52708 26.003138 191.52708L26.534388 191.52708Q27.753138 191.52708 28.659388 191.99583Q29.565638 192.44896 30.050013 193.32396Q30.534388 194.18333 30.550013 195.32396L30.550013 197.69896ZM22.940638 196.57396L29.628138 196.57396L29.628138 195.38646Q29.628138 194.08958 28.831263 193.37083Q28.018763 192.63646 26.518763 192.63646L26.018763 192.63646Q24.565638 192.63646 23.768763 193.32396Q22.956263 193.99583 22.940638 195.26146L22.940638 196.57396ZM30.675013 187.23021Q30.675013 188.52708 29.831263 189.33958Q28.971888 190.13646 27.550013 190.13646L27.362513 190.13646Q26.409388 190.13646 25.675013 189.77708Q24.925013 189.41771 24.518763 188.77708Q24.096888 188.12083 24.096888 187.37083Q24.096888 186.13646 24.909388 185.44896Q25.721888 184.76146 27.237513 184.76146L27.690638 184.76146L27.690638 189.05833Q28.628138 189.02708 29.206263 188.51146Q29.784388 187.98021 29.784388 187.16771Q29.784388 186.60521 29.550013 186.21458Q29.315638 185.80833 28.925013 185.49583L29.440638 184.83958Q30.675013 185.63646 30.675013 187.23021ZM24.987513 187.37083Q24.987513 188.02708 25.471888 188.48021Q25.940638 188.91771 26.800013 189.01146L26.800013 185.83958L26.721888 185.83958Q25.893763 185.88646 25.440638 186.29271Q24.987513 186.68333 24.987513 187.37083ZM27.456263 178.51146Q28.893763 178.51146 29.784388 179.16771Q30.675013 179.82396 30.675013 180.96458Q30.675013 182.12083 29.940638 182.77708L32.98751 182.77708L32.98751 183.85521L24.206263 183.85521L24.206263 182.87083L24.909388 182.82396Q24.096888 182.15208 24.096888 180.98021Q24.096888 179.83958 24.956263 179.18333Q25.815638 178.51146 27.346888 178.51146L27.456263 178.51146ZM27.331263 179.58958Q26.253138 179.58958 25.643763 180.05833Q25.018763 180.51146 25.018763 181.30833Q25.018763 182.29271 25.878138 182.77708L28.909388 182.77708Q29.784388 182.29271 29.784388 181.29271Q29.784388 180.51146 29.175013 180.05833Q28.550013 179.58958 27.331263 179.58958ZM22.675013 175.38646L24.206263 175.38646L24.206263 174.21458L25.050013 174.21458L25.050013 175.38646L28.971888 175.38646Q29.362513 175.38646 29.550013 175.23021Q29.737513 175.07396 29.737513 174.69896Q29.737513 174.51146 29.675013 174.18333L30.550013 174.18333Q30.675013 174.60521 30.675013 175.01146Q30.675013 175.73021 30.237513 176.10521Q29.784388 176.48021 28.971888 176.48021L25.050013 176.48021L25.050013 177.63646L24.206263 177.63646L24.206263 176.48021L22.675013 176.48021L22.675013 175.38646ZM24.971888 171.77708Q24.096888 171.05833 24.096888 169.90208Q24.096888 167.88646 26.362513 167.87083L30.550013 167.87083L30.550013 168.96458L26.346888 168.96458Q25.675013 168.96458 25.346888 169.27708Q25.018763 169.57396 25.018763 170.23021Q25.018763 170.76146 25.300013 171.16771Q25.581263 171.55833 26.034388 171.77708L30.550013 171.77708L30.550013 172.85521L21.550013 172.85521L21.550013 171.77708L24.971888 171.77708Z" fill-rule="nonzero"/><path fill="#757575" d="M71.6125 299.3094Q71.6125 301.21564 70.95625 302.15314Q70.31563 303.075 68.925 303.075Q67.56563 303.075 66.90938 302.16876Q66.25313 301.2625 66.22188 299.45L66.22188 298.0125Q66.22188 296.1219 66.8625 295.21564Q67.51875 294.29376 68.90938 294.29376Q70.28438 294.29376 70.94063 295.1844Q71.59688 296.0594 71.6125 297.90314L71.6125 299.3094ZM70.51875 297.825Q70.51875 296.45 70.12813 295.825Q69.75313 295.1844 68.90938 295.1844Q68.08125 295.1844 67.69063 295.825Q67.31563 296.45 67.31563 297.7469L67.31563 299.48126Q67.31563 300.85626 67.70625 301.52814Q68.1125 302.1844 68.925 302.1844Q69.72188 302.1844 70.1125 301.5594Q70.50313 300.9344 70.51875 299.60626L70.51875 297.825Z" fill-rule="nonzero"/><path fill="#757575" d="M71.84688 262.1111L66.25313 262.1111L66.25313 261.32986L69.20625 258.0486Q69.8625 257.2986 70.1125 256.8455Q70.3625 256.37674 70.3625 255.87674Q70.3625 255.20486 69.95625 254.78299Q69.56563 254.34549 68.87813 254.34549Q68.08125 254.34549 67.62813 254.81424Q67.175 255.26736 67.175 256.0955L66.09688 256.0955Q66.09688 254.90799 66.84688 254.18924Q67.6125 253.45486 68.87813 253.45486Q70.08125 253.45486 70.76875 254.07986Q71.45625 254.70486 71.45625 255.75174Q71.45625 257.00174 69.84688 258.75174L67.56563 261.2205L71.84688 261.2205L71.84688 262.1111Z" fill-rule="nonzero"/><path fill="#757575" d="M70.83125 218.41284L72.01875 218.41284L72.01875 219.28784L70.83125 219.28784L70.83125 221.27222L69.75313 221.27222L69.75313 219.28784L65.8625 219.28784L65.8625 218.64722L69.675 212.74097L70.83125 212.74097L70.83125 218.41284ZM67.09688 218.41284L69.75313 218.41284L69.75313 214.22534L69.6125 214.45972L67.09688 218.41284Z" fill-rule="nonzero"/><path fill="#757575" d="M70.51875 171.90208L70.51875 172.80833L70.31563 172.80833Q69.05 172.83958 68.3 173.57396Q67.55 174.29271 67.425 175.60521Q68.1125 174.83958 69.26875 174.83958Q70.37813 174.83958 71.05 175.62083Q71.72188 176.40208 71.72188 177.65208Q71.72188 178.96458 71.00313 179.76146Q70.28438 180.55833 69.06563 180.55833Q67.84688 180.55833 67.08125 179.62083Q66.33125 178.66771 66.33125 177.18333L66.33125 176.77708Q66.33125 174.41771 67.33125 173.16771Q68.33125 171.91771 70.31563 171.90208L70.51875 171.90208ZM69.09688 175.74583Q68.53438 175.74583 68.06563 176.07396Q67.59688 176.40208 67.40938 176.91771L67.40938 177.30833Q67.40938 178.37083 67.87813 179.01146Q68.3625 179.65208 69.06563 179.65208Q69.8 179.65208 70.22188 179.12083Q70.64375 178.57396 70.64375 177.69896Q70.64375 176.82396 70.22188 176.29271Q69.8 175.74583 69.09688 175.74583Z" fill-rule="nonzero"/><path fill="#757575" d="M71.44063 133.28195Q71.44063 133.92258 71.09688 134.42258Q70.75313 134.92258 70.19063 135.20383Q70.84688 135.48508 71.2375 136.04758Q71.62813 136.59445 71.62813 137.29758Q71.62813 138.39133 70.87813 139.0632Q70.14375 139.71945 68.925 139.71945Q67.69063 139.71945 66.94063 139.0632Q66.20625 138.39133 66.20625 137.29758Q66.20625 136.59445 66.58125 136.04758Q66.95625 135.48508 67.62813 135.20383Q67.06563 134.92258 66.7375 134.42258Q66.40938 133.92258 66.40938 133.28195Q66.40938 132.20383 67.09688 131.57883Q67.78438 130.9382 68.925 130.9382Q70.05 130.9382 70.7375 131.57883Q71.44063 132.20383 71.44063 133.28195ZM70.55 137.26633Q70.55 136.54758 70.09688 136.11008Q69.64375 135.65695 68.90938 135.65695Q68.175 135.65695 67.72188 136.11008Q67.28438 136.54758 67.28438 137.28195Q67.28438 138.0007 67.72188 138.42258Q68.15938 138.82883 68.925 138.82883Q69.675 138.82883 70.1125 138.40695Q70.55 137.98508 70.55 137.26633ZM68.925 131.82883Q68.28438 131.82883 67.87813 132.23508Q67.4875 132.6257 67.4875 133.3132Q67.4875 133.95383 67.87813 134.36008Q68.26875 134.76633 68.90938 134.76633Q69.56563 134.76633 69.95625 134.36008Q70.34688 133.95383 70.34688 133.3132Q70.34688 132.65695 69.94063 132.2507Q69.53438 131.82883 68.925 131.82883Z" fill-rule="nonzero"/><path fill="#757575" d="M62.815624 98.755554L61.7375 98.755554L61.7375 91.536804L59.55 92.33368L59.55 91.349304L62.659374 90.17743L62.815624 90.17743L62.815624 98.755554ZM71.6125 95.11493Q71.6125 97.02118 70.95625 97.95868Q70.31563 98.880554 68.925 98.880554Q67.56563 98.880554 66.90938 97.974304Q66.25313 97.068054 66.22188 95.255554L66.22188 93.818054Q66.22188 91.92743 66.8625 91.02118Q67.51875 90.099304 68.90938 90.099304Q70.28438 90.099304 70.94063 90.98993Q71.59688 91.86493 71.6125 93.70868L71.6125 95.11493ZM70.51875 93.630554Q70.51875 92.255554 70.12813 91.630554Q69.75313 90.98993 68.90938 90.98993Q68.08125 90.98993 67.69063 91.630554Q67.31563 92.255554 67.31563 93.55243L67.31563 95.286804Q67.31563 96.661804 67.70625 97.33368Q68.1125 97.98993 68.925 97.98993Q69.72188 97.98993 70.1125 97.36493Q70.50313 96.73993 70.51875 95.411804L70.51875 93.630554Z" fill-rule="nonzero"/><path fill="#757575" d="M62.815624 57.916668L61.7375 57.916668L61.7375 50.697918L59.55 51.494793L59.55 50.510418L62.659374 49.338543L62.815624 49.338543L62.815624 57.916668ZM71.84688 57.916668L66.25313 57.916668L66.25313 57.135418L69.20625 53.854168Q69.8625 53.104168 70.1125 52.651043Q70.3625 52.182293 70.3625 51.682293Q70.3625 51.010418 69.95625 50.588543Q69.56563 50.151043 68.87813 50.151043Q68.08125 50.151043 67.62813 50.619793Q67.175 51.072918 67.175 51.901043L66.09688 51.901043Q66.09688 50.713543 66.84688 49.994793Q67.6125 49.260418 68.87813 49.260418Q70.08125 49.260418 70.76875 49.885418Q71.45625 50.510418 71.45625 51.557293Q71.45625 52.807293 69.84688 54.557293L67.56563 57.026043L71.84688 57.026043L71.84688 57.916668Z" fill-rule="nonzero"/><path fill="#757575" d="M159.14955 316.45L158.07143 316.45L158.07143 309.23126L155.88393 310.02814L155.88393 309.04376L158.9933 307.8719L159.14955 307.8719L159.14955 316.45ZM167.94643 312.8094Q167.94643 314.71564 167.29018 315.65314Q166.64955 316.575 165.25893 316.575Q163.89955 316.575 163.2433 315.66876Q162.58705 314.7625 162.5558 312.95L162.5558 311.5125Q162.5558 309.6219 163.19643 308.71564Q163.85268 307.79376 165.2433 307.79376Q166.6183 307.79376 167.27455 308.6844Q167.9308 309.5594 167.94643 311.40314L167.94643 312.8094ZM166.85268 311.325Q166.85268 309.95 166.46205 309.325Q166.08705 308.6844 165.2433 308.6844Q164.41518 308.6844 164.02455 309.325Q163.64955 309.95 163.64955 311.2469L163.64955 312.98126Q163.64955 314.35626 164.04018 315.02814Q164.44643 315.6844 165.25893 315.6844Q166.0558 315.6844 166.44643 315.0594Q166.83705 314.4344 166.85268 313.10626L166.85268 311.325ZM174.94643 312.8094Q174.94643 314.71564 174.29018 315.65314Q173.64955 316.575 172.25893 316.575Q170.89955 316.575 170.2433 315.66876Q169.58705 314.7625 169.5558 312.95L169.5558 311.5125Q169.5558 309.6219 170.19643 308.71564Q170.85268 307.79376 172.2433 307.79376Q173.6183 307.79376 174.27455 308.6844Q174.9308 309.5594 174.94643 311.40314L174.94643 312.8094ZM173.85268 311.325Q173.85268 309.95 173.46205 309.325Q173.08705 308.6844 172.2433 308.6844Q171.41518 308.6844 171.02455 309.325Q170.64955 309.95 170.64955 311.2469L170.64955 312.98126Q170.64955 314.35626 171.04018 315.02814Q171.44643 315.6844 172.25893 315.6844Q173.0558 315.6844 173.44643 315.0594Q173.83705 314.4344 173.85268 313.10626L173.85268 311.325ZM181.94643 312.8094Q181.94643 314.71564 181.29018 315.65314Q180.64955 316.575 179.25893 316.575Q177.89955 316.575 177.2433 315.66876Q176.58705 314.7625 176.5558 312.95L176.5558 311.5125Q176.5558 309.6219 177.19643 308.71564Q177.85268 307.79376 179.2433 307.79376Q180.6183 307.79376 181.27455 308.6844Q181.9308 309.5594 181.94643 311.40314L181.94643 312.8094ZM180.85268 311.325Q180.85268 309.95 180.46205 309.325Q180.08705 308.6844 179.2433 308.6844Q178.41518 308.6844 178.02455 309.325Q177.64955 309.95 177.64955 311.2469L177.64955 312.98126Q177.64955 314.35626 178.04018 315.02814Q178.44643 315.6844 179.25893 315.6844Q180.0558 315.6844 180.44643 315.0594Q180.83705 314.4344 180.85268 313.10626L180.85268 311.325Z" fill-rule="nonzero"/><path fill="#757575" d="M250.8309 316.45L249.75278 316.45L249.75278 309.23126L247.56528 310.02814L247.56528 309.04376L250.67465 307.8719L250.8309 307.8719L250.8309 316.45ZM259.86215 316.45L254.2684 316.45L254.2684 315.66876L257.22153 312.3875Q257.87778 311.6375 258.12778 311.1844Q258.37778 310.71564 258.37778 310.21564Q258.37778 309.54376 257.97153 309.1219Q257.5809 308.6844 256.8934 308.6844Q256.09653 308.6844 255.6434 309.15314Q255.19028 309.60626 255.19028 310.4344L254.11215 310.4344Q254.11215 309.2469 254.86215 308.52814Q255.62778 307.79376 256.8934 307.79376Q258.09653 307.79376 258.78403 308.41876Q259.47153 309.04376 259.47153 310.09064Q259.47153 311.34064 257.86215 313.09064L255.5809 315.5594L259.86215 315.5594L259.86215 316.45ZM266.62778 312.8094Q266.62778 314.71564 265.97153 315.65314Q265.3309 316.575 263.94028 316.575Q262.5809 316.575 261.92465 315.66876Q261.2684 314.7625 261.23715 312.95L261.23715 311.5125Q261.23715 309.6219 261.87778 308.71564Q262.53403 307.79376 263.92465 307.79376Q265.29965 307.79376 265.9559 308.6844Q266.61215 309.5594 266.62778 311.40314L266.62778 312.8094ZM265.53403 311.325Q265.53403 309.95 265.1434 309.325Q264.7684 308.6844 263.92465 308.6844Q263.09653 308.6844 262.7059 309.325Q262.3309 309.95 262.3309 311.2469L262.3309 312.98126Q262.3309 314.35626 262.72153 315.02814Q263.12778 315.6844 263.94028 315.6844Q264.73715 315.6844 265.12778 315.0594Q265.5184 314.4344 265.53403 313.10626L265.53403 311.325ZM273.62778 312.8094Q273.62778 314.71564 272.97153 315.65314Q272.3309 316.575 270.94028 316.575Q269.5809 316.575 268.92465 315.66876Q268.2684 314.7625 268.23715 312.95L268.23715 311.5125Q268.23715 309.6219 268.87778 308.71564Q269.53403 307.79376 270.92465 307.79376Q272.29965 307.79376 272.9559 308.6844Q273.61215 309.5594 273.62778 311.40314L273.62778 312.8094ZM272.53403 311.325Q272.53403 309.95 272.1434 309.325Q271.7684 308.6844 270.92465 308.6844Q270.09653 308.6844 269.7059 309.325Q269.3309 309.95 269.3309 311.2469L269.3309 312.98126Q269.3309 314.35626 269.72153 315.02814Q270.12778 315.6844 270.94028 315.6844Q271.73715 315.6844 272.12778 315.0594Q272.5184 314.4344 272.53403 313.10626L272.53403 311.325Z" fill-rule="nonzero"/><path fill="#757575" d="M342.51227 316.45L341.43414 316.45L341.43414 309.23126L339.24664 310.02814L339.24664 309.04376L342.35602 307.8719L342.51227 307.8719L342.51227 316.45ZM350.5279 313.59064L351.7154 313.59064L351.7154 314.46564L350.5279 314.46564L350.5279 316.45L349.44977 316.45L349.44977 314.46564L345.55914 314.46564L345.55914 313.825L349.37164 307.91876L350.5279 307.91876L350.5279 313.59064ZM346.79352 313.59064L349.44977 313.59064L349.44977 309.40314L349.30914 309.6375L346.79352 313.59064ZM358.30914 312.8094Q358.30914 314.71564 357.6529 315.65314Q357.01227 316.575 355.62164 316.575Q354.26227 316.575 353.60602 315.66876Q352.94977 314.7625 352.91852 312.95L352.91852 311.5125Q352.91852 309.6219 353.55914 308.71564Q354.2154 307.79376 355.60602 307.79376Q356.98102 307.79376 357.63727 308.6844Q358.29352 309.5594 358.30914 311.40314L358.30914 312.8094ZM357.2154 311.325Q357.2154 309.95 356.82477 309.325Q356.44977 308.6844 355.60602 308.6844Q354.7779 308.6844 354.38727 309.325Q354.01227 309.95 354.01227 311.2469L354.01227 312.98126Q354.01227 314.35626 354.4029 315.02814Q354.80914 315.6844 355.62164 315.6844Q356.41852 315.6844 356.80914 315.0594Q357.19977 314.4344 357.2154 313.10626L357.2154 311.325ZM365.30914 312.8094Q365.30914 314.71564 364.6529 315.65314Q364.01227 316.575 362.62164 316.575Q361.26227 316.575 360.60602 315.66876Q359.94977 314.7625 359.91852 312.95L359.91852 311.5125Q359.91852 309.6219 360.55914 308.71564Q361.2154 307.79376 362.60602 307.79376Q363.98102 307.79376 364.63727 308.6844Q365.29352 309.5594 365.30914 311.40314L365.30914 312.8094ZM364.2154 311.325Q364.2154 309.95 363.82477 309.325Q363.44977 308.6844 362.60602 308.6844Q361.7779 308.6844 361.38727 309.325Q361.01227 309.95 361.01227 311.2469L361.01227 312.98126Q361.01227 314.35626 361.4029 315.02814Q361.80914 315.6844 362.62164 315.6844Q363.41852 315.6844 363.80914 315.0594Q364.19977 314.4344 364.2154 313.10626L364.2154 311.325Z" fill-rule="nonzero"/><path fill="#757575" d="M434.1936 316.45L433.11548 316.45L433.11548 309.23126L430.92798 310.02814L430.92798 309.04376L434.03735 307.8719L434.1936 307.8719L434.1936 316.45ZM441.89673 307.91876L441.89673 308.825L441.6936 308.825Q440.42798 308.85626 439.67798 309.59064Q438.92798 310.3094 438.80298 311.6219Q439.49048 310.85626 440.64673 310.85626Q441.7561 310.85626 442.42798 311.6375Q443.09985 312.41876 443.09985 313.66876Q443.09985 314.98126 442.3811 315.77814Q441.66235 316.575 440.4436 316.575Q439.22485 316.575 438.45923 315.6375Q437.70923 314.6844 437.70923 313.2L437.70923 312.79376Q437.70923 310.4344 438.70923 309.1844Q439.70923 307.9344 441.6936 307.91876L441.89673 307.91876ZM440.47485 311.7625Q439.91235 311.7625 439.4436 312.09064Q438.97485 312.41876 438.78735 312.9344L438.78735 313.325Q438.78735 314.3875 439.2561 315.02814Q439.74048 315.66876 440.4436 315.66876Q441.17798 315.66876 441.59985 315.1375Q442.02173 314.59064 442.02173 313.71564Q442.02173 312.84064 441.59985 312.3094Q441.17798 311.7625 440.47485 311.7625ZM449.99048 312.8094Q449.99048 314.71564 449.33423 315.65314Q448.6936 316.575 447.30298 316.575Q445.9436 316.575 445.28735 315.66876Q444.6311 314.7625 444.59985 312.95L444.59985 311.5125Q444.59985 309.6219 445.24048 308.71564Q445.89673 307.79376 447.28735 307.79376Q448.66235 307.79376 449.3186 308.6844Q449.97485 309.5594 449.99048 311.40314L449.99048 312.8094ZM448.89673 311.325Q448.89673 309.95 448.5061 309.325Q448.1311 308.6844 447.28735 308.6844Q446.45923 308.6844 446.0686 309.325Q445.6936 309.95 445.6936 311.2469L445.6936 312.98126Q445.6936 314.35626 446.08423 315.02814Q446.49048 315.6844 447.30298 315.6844Q448.09985 315.6844 448.49048 315.0594Q448.8811 314.4344 448.89673 313.10626L448.89673 311.325ZM456.99048 312.8094Q456.99048 314.71564 456.33423 315.65314Q455.6936 316.575 454.30298 316.575Q452.9436 316.575 452.28735 315.66876Q451.6311 314.7625 451.59985 312.95L451.59985 311.5125Q451.59985 309.6219 452.24048 308.71564Q452.89673 307.79376 454.28735 307.79376Q455.66235 307.79376 456.3186 308.6844Q456.97485 309.5594 456.99048 311.40314L456.99048 312.8094ZM455.89673 311.325Q455.89673 309.95 455.5061 309.325Q455.1311 308.6844 454.28735 308.6844Q453.45923 308.6844 453.0686 309.325Q452.6936 309.95 452.6936 311.2469L452.6936 312.98126Q452.6936 314.35626 453.08423 315.02814Q453.49048 315.6844 454.30298 315.6844Q455.09985 315.6844 455.49048 315.0594Q455.8811 314.4344 455.89673 313.10626L455.89673 311.325Z" fill-rule="nonzero"/><path fill="#757575" d="M525.87494 316.45L524.7968 316.45L524.7968 309.23126L522.6093 310.02814L522.6093 309.04376L525.7187 307.8719L525.87494 307.8719L525.87494 316.45ZM534.49994 310.1375Q534.49994 310.77814 534.1562 311.27814Q533.81244 311.77814 533.24994 312.0594Q533.9062 312.34064 534.2968 312.90314Q534.68744 313.45 534.68744 314.15314Q534.68744 315.2469 533.93744 315.91876Q533.20306 316.575 531.9843 316.575Q530.74994 316.575 529.99994 315.91876Q529.26556 315.2469 529.26556 314.15314Q529.26556 313.45 529.64056 312.90314Q530.01556 312.34064 530.68744 312.0594Q530.12494 311.77814 529.7968 311.27814Q529.4687 310.77814 529.4687 310.1375Q529.4687 309.0594 530.1562 308.4344Q530.8437 307.79376 531.9843 307.79376Q533.1093 307.79376 533.7968 308.4344Q534.49994 309.0594 534.49994 310.1375ZM533.6093 314.1219Q533.6093 313.40314 533.1562 312.96564Q532.70306 312.5125 531.9687 312.5125Q531.2343 312.5125 530.7812 312.96564Q530.3437 313.40314 530.3437 314.1375Q530.3437 314.85626 530.7812 315.27814Q531.2187 315.6844 531.9843 315.6844Q532.7343 315.6844 533.1718 315.2625Q533.6093 314.84064 533.6093 314.1219ZM531.9843 308.6844Q531.3437 308.6844 530.93744 309.09064Q530.5468 309.48126 530.5468 310.16876Q530.5468 310.8094 530.93744 311.21564Q531.32806 311.6219 531.9687 311.6219Q532.62494 311.6219 533.01556 311.21564Q533.4062 310.8094 533.4062 310.16876Q533.4062 309.5125 532.99994 309.10626Q532.5937 308.6844 531.9843 308.6844ZM541.6718 312.8094Q541.6718 314.71564 541.01556 315.65314Q540.37494 316.575 538.9843 316.575Q537.62494 316.575 536.9687 315.66876Q536.31244 314.7625 536.2812 312.95L536.2812 311.5125Q536.2812 309.6219 536.9218 308.71564Q537.57806 307.79376 538.9687 307.79376Q540.3437 307.79376 540.99994 308.6844Q541.6562 309.5594 541.6718 311.40314L541.6718 312.8094ZM540.57806 311.325Q540.57806 309.95 540.18744 309.325Q539.81244 308.6844 538.9687 308.6844Q538.14056 308.6844 537.74994 309.325Q537.37494 309.95 537.37494 311.2469L537.37494 312.98126Q537.37494 314.35626 537.76556 315.02814Q538.1718 315.6844 538.9843 315.6844Q539.7812 315.6844 540.1718 315.0594Q540.56244 314.4344 540.57806 313.10626L540.57806 311.325ZM548.6718 312.8094Q548.6718 314.71564 548.01556 315.65314Q547.37494 316.575 545.9843 316.575Q544.62494 316.575 543.9687 315.66876Q543.31244 314.7625 543.2812 312.95L543.2812 311.5125Q543.2812 309.6219 543.9218 308.71564Q544.57806 307.79376 545.9687 307.79376Q547.3437 307.79376 547.99994 308.6844Q548.6562 309.5594 548.6718 311.40314L548.6718 312.8094ZM547.57806 311.325Q547.57806 309.95 547.18744 309.325Q546.81244 308.6844 545.9687 308.6844Q545.14056 308.6844 544.74994 309.325Q544.37494 309.95 544.37494 311.2469L544.37494 312.98126Q544.37494 314.35626 544.76556 315.02814Q545.1718 315.6844 545.9843 315.6844Q546.7812 315.6844 547.1718 315.0594Q547.56244 314.4344 547.57806 313.10626L547.57806 311.325Z" fill-rule="nonzero"/><path fill="#ff9900" d="M226.5 26.05C226.5 29.363708 223.8137 32.05 220.5 32.05C217.1863 32.05 214.5 29.363708 214.5 26.05C214.5 22.736292 217.1863 20.05 220.5 20.05C223.8137 20.05 226.5 22.736292 226.5 26.05Z" fill-rule="nonzero"/><path fill="#757575" d="M241.76562 27.846874Q241.60938 29.190624 240.76562 29.940624Q239.92188 30.675 238.53125 30.675Q237.01562 30.675 236.10938 29.596874Q235.20312 28.503124 235.20312 26.675L235.20312 25.8625Q235.20312 24.675 235.625 23.76875Q236.04688 22.8625 236.82812 22.378124Q237.60938 21.89375 238.625 21.89375Q239.98438 21.89375 240.79688 22.659374Q241.625 23.425 241.76562 24.753124L240.64062 24.753124Q240.48438 23.7375 240.0 23.284374Q239.51562 22.83125 238.625 22.83125Q237.54688 22.83125 236.9375 23.628124Q236.32812 24.425 236.32812 25.89375L236.32812 26.721874Q236.32812 28.1125 236.90625 28.940624Q237.48438 29.753124 238.53125 29.753124Q239.46875 29.753124 239.96875 29.33125Q240.46875 28.89375 240.64062 27.846874L241.76562 27.846874ZM243.03125 27.315624Q243.03125 26.39375 243.39062 25.64375Q243.76562 24.89375 244.42188 24.503124Q245.07812 24.096874 245.90625 24.096874Q247.20312 24.096874 248.0 24.9875Q248.8125 25.878124 248.8125 27.378124L248.8125 27.45625Q248.8125 28.378124 248.45312 29.1125Q248.09375 29.846874 247.4375 30.26875Q246.78125 30.675 245.92188 30.675Q244.64062 30.675 243.82812 29.784374Q243.03125 28.878124 243.03125 27.39375L243.03125 27.315624ZM244.125 27.45625Q244.125 28.503124 244.60938 29.14375Q245.10938 29.784374 245.92188 29.784374Q246.75 29.784374 247.23438 29.14375Q247.71875 28.4875 247.71875 27.315624Q247.71875 26.284374 247.21875 25.64375Q246.73438 24.9875 245.90625 24.9875Q245.10938 24.9875 244.60938 25.628124Q244.125 26.253124 244.125 27.45625ZM253.39062 25.175Q253.14062 25.14375 252.85938 25.14375Q251.78125 25.14375 251.40625 26.05L251.40625 30.55L250.32812 30.55L250.32812 24.20625L251.375 24.20625L251.39062 24.940624Q251.92188 24.096874 252.90625 24.096874Q253.21875 24.096874 253.39062 24.175L253.39062 25.175ZM255.34375 24.20625L255.375 25.003124Q256.10938 24.096874 257.28125 24.096874Q259.29688 24.096874 259.3125 26.3625L259.3125 30.55L258.21875 30.55L258.21875 26.346874Q258.21875 25.675 257.90625 25.346874Q257.60938 25.01875 256.95312 25.01875Q256.42188 25.01875 256.01562 25.3Q255.625 25.58125 255.40625 26.034374L255.40625 30.55L254.32812 30.55L254.32812 24.20625L255.34375 24.20625ZM263.95312 30.675Q262.65625 30.675 261.84375 29.83125Q261.04688 28.971874 261.04688 27.55L261.04688 27.3625Q261.04688 26.409374 261.40625 25.675Q261.76562 24.925 262.40625 24.51875Q263.0625 24.096874 263.8125 24.096874Q265.04688 24.096874 265.73438 24.909374Q266.42188 25.721874 266.42188 27.2375L266.42188 27.690624L262.125 27.690624Q262.15625 28.628124 262.67188 29.20625Q263.20312 29.784374 264.01562 29.784374Q264.57812 29.784374 264.96875 29.55Q265.375 29.315624 265.6875 28.925L266.34375 29.440624Q265.54688 30.675 263.95312 30.675ZM263.8125 24.9875Q263.15625 24.9875 262.70312 25.471874Q262.26562 25.940624 262.17188 26.8L265.34375 26.8L265.34375 26.721874Q265.29688 25.89375 264.89062 25.440624Q264.5 24.9875 263.8125 24.9875ZM270.39062 25.175Q270.14062 25.14375 269.85938 25.14375Q268.78125 25.14375 268.40625 26.05L268.40625 30.55L267.32812 30.55L267.32812 24.20625L268.375 24.20625L268.39062 24.940624Q268.92188 24.096874 269.90625 24.096874Q270.21875 24.096874 270.39062 24.175L270.39062 25.175Z" fill-rule="nonzero"/><path stroke="#ff9900" stroke-width="4.0" stroke-linecap="butt" stroke-opacity="0.4" d="M286.5 26.05L298.5 26.05" fill-rule="nonzero"/><path fill="#757575" d="M308.625 29.628124L312.67188 29.628124L312.67188 30.55L307.48438 30.55L307.48438 22.01875L308.625 22.01875L308.625 29.628124ZM314.5 30.55L313.42188 30.55L313.42188 24.20625L314.5 24.20625L314.5 30.55ZM313.32812 22.534374Q313.32812 22.26875 313.48438 22.08125Q313.65625 21.89375 313.96875 21.89375Q314.28125 21.89375 314.4375 22.08125Q314.60938 22.26875 314.60938 22.534374Q314.60938 22.784374 314.4375 22.971874Q314.28125 23.14375 313.96875 23.14375Q313.65625 23.14375 313.48438 22.971874Q313.32812 22.784374 313.32812 22.534374ZM317.34375 24.20625L317.375 25.003124Q318.10938 24.096874 319.28125 24.096874Q321.29688 24.096874 321.3125 26.3625L321.3125 30.55L320.21875 30.55L320.21875 26.346874Q320.21875 25.675 319.90625 25.346874Q319.60938 25.01875 318.95312 25.01875Q318.42188 25.01875 318.01562 25.3Q317.625 25.58125 317.40625 26.034374L317.40625 30.55L316.32812 30.55L316.32812 24.20625L317.34375 24.20625ZM325.95312 30.675Q324.65625 30.675 323.84375 29.83125Q323.04688 28.971874 323.04688 27.55L323.04688 27.3625Q323.04688 26.409374 323.40625 25.675Q323.76562 24.925 324.40625 24.51875Q325.0625 24.096874 325.8125 24.096874Q327.04688 24.096874 327.73438 24.909374Q328.42188 25.721874 328.42188 27.2375L328.42188 27.690624L324.125 27.690624Q324.15625 28.628124 324.67188 29.20625Q325.20312 29.784374 326.01562 29.784374Q326.57812 29.784374 326.96875 29.55Q327.375 29.315624 327.6875 28.925L328.34375 29.440624Q327.54688 30.675 325.95312 30.675ZM325.8125 24.9875Q325.15625 24.9875 324.70312 25.471874Q324.26562 25.940624 324.17188 26.8L327.34375 26.8L327.34375 26.721874Q327.29688 25.89375 326.89062 25.440624Q326.5 24.9875 325.8125 24.9875ZM332.03125 27.315624Q332.03125 26.39375 332.39062 25.64375Q332.76562 24.89375 333.42188 24.503124Q334.07812 24.096874 334.90625 24.096874Q336.20312 24.096874 337.0 24.9875Q337.8125 25.878124 337.8125 27.378124L337.8125 27.45625Q337.8125 28.378124 337.45312 29.1125Q337.09375 29.846874 336.4375 30.26875Q335.78125 30.675 334.92188 30.675Q333.64062 30.675 332.82812 29.784374Q332.03125 28.878124 332.03125 27.39375L332.03125 27.315624ZM333.125 27.45625Q333.125 28.503124 333.60938 29.14375Q334.10938 29.784374 334.92188 29.784374Q335.75 29.784374 336.23438 29.14375Q336.71875 28.4875 336.71875 27.315624Q336.71875 26.284374 336.21875 25.64375Q335.73438 24.9875 334.90625 24.9875Q334.10938 24.9875 333.60938 25.628124Q333.125 26.253124 333.125 27.45625ZM339.85938 30.55L339.85938 25.05L338.85938 25.05L338.85938 24.20625L339.85938 24.20625L339.85938 23.565624Q339.85938 22.534374 340.39062 21.9875Q340.9375 21.425 341.9375 21.425Q342.3125 21.425 342.6875 21.51875L342.625 22.409374Q342.34375 22.346874 342.04688 22.346874Q341.51562 22.346874 341.21875 22.659374Q340.9375 22.971874 340.9375 23.534374L340.9375 24.20625L342.29688 24.20625L342.29688 25.05L340.9375 25.05L340.9375 30.55L339.85938 30.55ZM346.48438 30.55L346.48438 22.01875L349.28125 22.01875Q350.67188 22.01875 351.35938 22.596874Q352.0625 23.159374 352.0625 24.284374Q352.0625 24.89375 351.71875 25.3625Q351.39062 25.815624 350.79688 26.065624Q351.5 26.253124 351.89062 26.8Q352.29688 27.33125 352.29688 28.08125Q352.29688 29.2375 351.54688 29.89375Q350.8125 30.55 349.45312 30.55L346.48438 30.55ZM347.60938 26.565624L347.60938 29.628124L349.46875 29.628124Q350.26562 29.628124 350.71875 29.221874Q351.17188 28.815624 351.17188 28.096874Q351.17188 26.565624 349.48438 26.565624L347.60938 26.565624ZM347.60938 25.659374L349.3125 25.659374Q350.04688 25.659374 350.48438 25.3Q350.9375 24.925 350.9375 24.284374Q350.9375 23.58125 350.53125 23.26875Q350.125 22.940624 349.28125 22.940624L347.60938 22.940624L347.60938 25.659374ZM355.95312 30.675Q354.65625 30.675 353.84375 29.83125Q353.04688 28.971874 353.04688 27.55L353.04688 27.3625Q353.04688 26.409374 353.40625 25.675Q353.76562 24.925 354.40625 24.51875Q355.0625 24.096874 355.8125 24.096874Q357.04688 24.096874 357.73438 24.909374Q358.42188 25.721874 358.42188 27.2375L358.42188 27.690624L354.125 27.690624Q354.15625 28.628124 354.67188 29.20625Q355.20312 29.784374 356.01562 29.784374Q356.57812 29.784374 356.96875 29.55Q357.375 29.315624 357.6875 28.925L358.34375 29.440624Q357.54688 30.675 355.95312 30.675ZM355.8125 24.9875Q355.15625 24.9875 354.70312 25.471874Q354.26562 25.940624 354.17188 26.8L357.34375 26.8L357.34375 26.721874Q357.29688 25.89375 356.89062 25.440624Q356.5 24.9875 355.8125 24.9875ZM363.01562 28.8625Q363.01562 28.425 362.67188 28.190624Q362.34375 27.940624 361.51562 27.76875Q360.70312 27.596874 360.21875 27.346874Q359.73438 27.096874 359.5 26.76875Q359.28125 26.425 359.28125 25.95625Q359.28125 25.175 359.9375 24.64375Q360.59375 24.096874 361.625 24.096874Q362.70312 24.096874 363.35938 24.659374Q364.03125 25.20625 364.03125 26.065624L362.95312 26.065624Q362.95312 25.628124 362.5625 25.315624Q362.1875 24.9875 361.625 24.9875Q361.03125 24.9875 360.6875 25.253124Q360.35938 25.503124 360.35938 25.909374Q360.35938 26.3 360.67188 26.503124Q360.98438 26.70625 361.79688 26.89375Q362.60938 27.065624 363.10938 27.315624Q363.60938 27.565624 363.84375 27.925Q364.09375 28.284374 364.09375 28.784374Q364.09375 29.64375 363.40625 30.159374Q362.73438 30.675 361.65625 30.675Q360.89062 30.675 360.29688 30.409374Q359.71875 30.128124 359.39062 29.64375Q359.0625 29.159374 359.0625 28.596874L360.14062 28.596874Q360.17188 29.14375 360.57812 29.471874Q360.98438 29.784374 361.65625 29.784374Q362.26562 29.784374 362.64062 29.534374Q363.01562 29.284374 363.01562 28.8625ZM366.79688 22.675L366.79688 24.20625L367.96875 24.20625L367.96875 25.05L366.79688 25.05L366.79688 28.971874Q366.79688 29.3625 366.95312 29.55Q367.10938 29.7375 367.48438 29.7375Q367.67188 29.7375 368.0 29.675L368.0 30.55Q367.57812 30.675 367.17188 30.675Q366.45312 30.675 366.07812 30.2375Q365.70312 29.784374 365.70312 28.971874L365.70312 25.05L364.54688 25.05L364.54688 24.20625L365.70312 24.20625L365.70312 22.675L366.79688 22.675ZM377.20312 26.784374L373.60938 26.784374L373.60938 30.55L372.48438 30.55L372.48438 22.01875L377.78125 22.01875L377.78125 22.940624L373.60938 22.940624L373.60938 25.8625L377.20312 25.8625L377.20312 26.784374ZM380.5 30.55L379.42188 30.55L379.42188 24.20625L380.5 24.20625L380.5 30.55ZM379.32812 22.534374Q379.32812 22.26875 379.48438 22.08125Q379.65625 21.89375 379.96875 21.89375Q380.28125 21.89375 380.4375 22.08125Q380.60938 22.26875 380.60938 22.534374Q380.60938 22.784374 380.4375 22.971874Q380.28125 23.14375 379.96875 23.14375Q379.65625 23.14375 379.48438 22.971874Q379.32812 22.784374 379.32812 22.534374ZM383.79688 22.675L383.79688 24.20625L384.96875 24.20625L384.96875 25.05L383.79688 25.05L383.79688 28.971874Q383.79688 29.3625 383.95312 29.55Q384.10938 29.7375 384.48438 29.7375Q384.67188 29.7375 385.0 29.675L385.0 30.55Q384.57812 30.675 384.17188 30.675Q383.45312 30.675 383.07812 30.2375Q382.70312 29.784374 382.70312 28.971874L382.70312 25.05L381.54688 25.05L381.54688 24.20625L382.70312 24.20625L382.70312 22.675L383.79688 22.675Z" fill-rule="nonzero"/></svg>