<svg version="1.1" viewBox="0.0 0.0 600.0 371.0" fill="none" stroke="none" stroke-linecap="square" stroke-miterlimit="10" width="600" height="371" xmlns:xlink="http://www.w3.org/1999/xlink" xmlns="http://www.w3.org/2000/svg"><path fill="#ffffff" d="M0 0L600.0 0L600.0 371.0L0 371.0L0 0Z" fill-rule="nonzero"/><path stroke="#cccccc" stroke-width="1.0" stroke-linecap="butt" d="M105.5 53.5L105.5 298.5" fill-rule="nonzero"/><path stroke="#cccccc" stroke-width="1.0" stroke-linecap="butt" d="M208.5 53.5L208.5 298.5" fill-rule="nonzero"/><path stroke="#cccccc" stroke-width="1.0" stroke-linecap="butt" d="M312.5 53.5L312.5 298.5" fill-rule="nonzero"/><path stroke="#cccccc" stroke-width="1.0" stroke-linecap="butt" d="M415.5 53.5L415.5 298.5" fill-rule="nonzero"/><path stroke="#cccccc" stroke-width="1.0" stroke-linecap="butt" d="M519.5 53.5L519.5 298.5" fill-rule="nonzero"/><path stroke="#333333" stroke-width="1.0" stroke-linecap="butt" d="M78.5 298.5L581.5 298.5" fill-rule="nonzero"/><path stroke="#cccccc" stroke-width="1.0" stroke-linecap="butt" d="M78.5 257.5L581.5 257.5" fill-rule="nonzero"/><path stroke="#cccccc" stroke-width="1.0" stroke-linecap="butt" d="M78.5 216.5L581.5 216.5" fill-rule="nonzero"/><path stroke="#cccccc" stroke-width="1.0" stroke-linecap="butt" d="M78.5 175.5L581.5 175.5" fill-rule="nonzero"/><path stroke="#cccccc" stroke-width="1.0" stroke-linecap="butt" d="M78.5 135.5L581.5 135.5" fill-rule="nonzero"/><path stroke="#cccccc" stroke-width="1.0" stroke-linecap="butt" d="M78.5 94.5L581.5 94.5" fill-rule="nonzero"/><path stroke="#cccccc" stroke-width="1.0" stroke-linecap="butt" d="M78.5 53.5L581.5 53.5" fill-rule="nonzero"/><clipPath id="id_0"><path d="M78.55 53.416668L581.45 53.416668L581.45 298.45L78.55 298.45L78.55 53.416668Z" clip-rule="nonzero"/></clipPath><path stroke="#4285f4" stroke-width="2.0" stroke-linecap="butt" stroke-opacity="0.5019608" clip-path="url(#id_0)" d="M0 218.05426L581.45 138.94954" fill-rule="nonzero"/><path fill="#4a86e8" clip-path="url(#id_0)" d="M273.3648 237.19167C273.3648 239.67694 271.3501 241.69167 268.8648 241.69167C266.37955 241.69167 264.3648 239.67694 264.3648 237.19167C264.3648 234.70639 266.37955 232.69167 268.8648 232.69167C271.3501 232.69167 273.3648 234.70639 273.3648 237.19167Z" fill-rule="nonzero"/><path fill="#4a86e8" clip-path="url(#id_0)" d="M444.76913 216.77222C444.76913 219.2575 442.75443 221.27222 440.26913 221.27222C437.78387 221.27222 435.76913 219.2575 435.76913 216.77222C435.76913 214.28694 437.78387 212.27222 440.26913 212.27222C442.75443 212.27222 444.76913 214.28694 444.76913 216.77222Z" fill-rule="nonzero"/><path fill="#4a86e8" clip-path="url(#id_0)" d="M190.97481 216.77222C190.97481 219.2575 188.9601 221.27222 186.47481 221.27222C183.98953 221.27222 181.97481 219.2575 181.97481 216.77222C181.97481 214.28694 183.98953 212.27222 186.47481 212.27222C188.9601 212.27222 190.97481 214.28694 190.97481 216.77222Z" fill-rule="nonzero"/><path fill="#4a86e8" clip-path="url(#id_0)" d="M261.77225 216.77222C261.77225 219.2575 259.75754 221.27222 257.27225 221.27222C254.78697 221.27222 252.77225 219.2575 252.77225 216.77222C252.77225 214.28694 254.78697 212.27222 257.27225 212.27222C259.75754 212.27222 261.77225 214.28694 261.77225 216.77222Z" fill-rule="nonzero"/><path fill="#4a86e8" clip-path="url(#id_0)" d="M169.85979 216.77222C169.85979 219.2575 167.84506 221.27222 165.35979 221.27222C162.8745 221.27222 160.85979 219.2575 160.85979 216.77222C160.85979 214.28694 162.8745 212.27222 165.35979 212.27222C167.84506 212.27222 169.85979 214.28694 169.85979 216.77222Z" fill-rule="nonzero"/><path fill="#4a86e8" clip-path="url(#id_0)" d="M179.38225 216.77222C179.38225 219.2575 177.36752 221.27222 174.88225 221.27222C172.39697 221.27222 170.38225 219.2575 170.38225 216.77222C170.38225 214.28694 172.39697 212.27222 174.88225 212.27222C177.36752 212.27222 179.38225 214.28694 179.38225 216.77222Z" fill-rule="nonzero"/><path fill="#4a86e8" clip-path="url(#id_0)" d="M219.5422 196.35278C219.5422 198.83806 217.52748 200.85278 215.0422 200.85278C212.55692 200.85278 210.5422 198.83806 210.5422 196.35278C210.5422 193.8675 212.55692 191.85278 215.0422 191.85278C217.52748 191.85278 219.5422 193.8675 219.5422 196.35278Z" fill-rule="nonzero"/><path fill="#4a86e8" clip-path="url(#id_0)" d="M313.52475 196.35278C313.52475 198.83806 311.51004 200.85278 309.02475 200.85278C306.5395 200.85278 304.52475 198.83806 304.52475 196.35278C304.52475 193.8675 306.5395 191.85278 309.02475 191.85278C311.51004 191.85278 313.52475 193.8675 313.52475 196.35278Z" fill-rule="nonzero"/><path fill="#4a86e8" clip-path="url(#id_0)" d="M213.74591 196.35278C213.74591 198.83806 211.7312 200.85278 209.24591 200.85278C206.76064 200.85278 204.74591 198.83806 204.74591 196.35278C204.74591 193.8675 206.76064 191.85278 209.24591 191.85278C211.7312 191.85278 213.74591 193.8675 213.74591 196.35278Z" fill-rule="nonzero"/><path fill="#4a86e8" clip-path="url(#id_0)" d="M306.0724 196.35278C306.0724 198.83806 304.05768 200.85278 301.5724 200.85278C299.08713 200.85278 297.0724 198.83806 297.0724 196.35278C297.0724 193.8675 299.08713 191.85278 301.5724 191.85278C304.05768 191.85278 306.0724 193.8675 306.0724 196.35278Z" fill-rule="nonzero"/><path fill="#4a86e8" clip-path="url(#id_0)" d="M232.79085 196.35278C232.79085 198.83806 230.77612 200.85278 228.29085 200.85278C225.80556 200.85278 223.79085 198.83806 223.79085 196.35278C223.79085 193.8675 225.80556 191.85278 228.29085 191.85278C230.77612 191.85278 232.79085 193.8675 232.79085 196.35278Z" fill-rule="nonzero"/><path fill="#4a86e8" clip-path="url(#id_0)" d="M345.81833 175.93333C345.81833 178.41861 343.80362 180.43333 341.31833 180.43333C338.83304 180.43333 336.81833 178.41861 336.81833 175.93333C336.81833 173.44806 338.83304 171.43333 341.31833 171.43333C343.80362 171.43333 345.81833 173.44806 345.81833 175.93333Z" fill-rule="nonzero"/><path fill="#4a86e8" clip-path="url(#id_0)" d="M364.44925 175.93333C364.44925 178.41861 362.4345 180.43333 359.94925 180.43333C357.46396 180.43333 355.44925 178.41861 355.44925 175.93333C355.44925 173.44806 357.46396 171.43333 359.94925 171.43333C362.4345 171.43333 364.44925 173.44806 364.44925 175.93333Z" fill-rule="nonzero"/><path fill="#4a86e8" clip-path="url(#id_0)" d="M239.82918 175.93333C239.82918 178.41861 237.81447 180.43333 235.32918 180.43333C232.8439 180.43333 230.82918 178.41861 230.82918 175.93333C230.82918 173.44806 232.8439 171.43333 235.32918 171.43333C237.81447 171.43333 239.82918 173.44806 239.82918 175.93333Z" fill-rule="nonzero"/><path fill="#4a86e8" clip-path="url(#id_0)" d="M248.5236 175.93333C248.5236 178.41861 246.50888 180.43333 244.0236 180.43333C241.53833 180.43333 239.5236 178.41861 239.5236 175.93333C239.5236 173.44806 241.53833 171.43333 244.0236 171.43333C246.50888 171.43333 248.5236 173.44806 248.5236 175.93333Z" fill-rule="nonzero"/><path fill="#4a86e8" clip-path="url(#id_0)" d="M198.42717 175.93333C198.42717 178.41861 196.41246 180.43333 193.92717 180.43333C191.4419 180.43333 189.42717 178.41861 189.42717 175.93333C189.42717 173.44806 191.4419 171.43333 193.92717 171.43333C196.41246 171.43333 198.42717 173.44806 198.42717 175.93333Z" fill-rule="nonzero"/><path fill="#4a86e8" clip-path="url(#id_0)" d="M383.90817 175.93333C383.90817 178.41861 381.89346 180.43333 379.40817 180.43333C376.9229 180.43333 374.90817 178.41861 374.90817 175.93333C374.90817 173.44806 376.9229 171.43333 379.40817 171.43333C381.89346 171.43333 383.90817 173.44806 383.90817 175.93333Z" fill-rule="nonzero"/><path fill="#4a86e8" clip-path="url(#id_0)" d="M320.5631 175.93333C320.5631 178.41861 318.5484 180.43333 316.0631 180.43333C313.57782 180.43333 311.5631 178.41861 311.5631 175.93333C311.5631 173.44806 313.57782 171.43333 316.0631 171.43333C318.5484 171.43333 320.5631 173.44806 320.5631 175.93333Z" fill-rule="nonzero"/><path fill="#4a86e8" clip-path="url(#id_0)" d="M330.08557 175.93333C330.08557 178.41861 328.07086 180.43333 325.58557 180.43333C323.10028 180.43333 321.08557 178.41861 321.08557 175.93333C321.08557 173.44806 323.10028 171.43333 325.58557 171.43333C328.07086 171.43333 330.08557 173.44806 330.08557 175.93333Z" fill-rule="nonzero"/><path fill="#4a86e8" clip-path="url(#id_0)" d="M353.68472 175.93333C353.68472 178.41861 351.66998 180.43333 349.18472 180.43333C346.69943 180.43333 344.68472 178.41861 344.68472 175.93333C344.68472 173.44806 346.69943 171.43333 349.18472 171.43333C351.66998 171.43333 353.68472 173.44806 353.68472 175.93333Z" fill-rule="nonzero"/><path fill="#4a86e8" clip-path="url(#id_0)" d="M423.6541 175.93333C423.6541 178.41861 421.6394 180.43333 419.1541 180.43333C416.66882 180.43333 414.6541 178.41861 414.6541 175.93333C414.6541 173.44806 416.66882 171.43333 419.1541 171.43333C421.6394 171.43333 423.6541 173.44806 423.6541 175.93333Z" fill-rule="nonzero"/><path fill="#4a86e8" clip-path="url(#id_0)" d="M89.9539 175.93333C89.9539 178.41861 87.939186 180.43333 85.4539 180.43333C82.96862 180.43333 80.9539 178.41861 80.9539 175.93333C80.9539 173.44806 82.96862 171.43333 85.4539 171.43333C87.939186 171.43333 89.9539 173.44806 89.9539 175.93333Z" fill-rule="nonzero"/><path fill="#4a86e8" clip-path="url(#id_0)" d="M418.27185 155.51389C418.27185 157.99918 416.25714 160.01389 413.77185 160.01389C411.28656 160.01389 409.27185 157.99918 409.27185 155.51389C409.27185 153.02861 411.28656 151.01389 413.77185 151.01389C416.25714 151.01389 418.27185 153.02861 418.27185 155.51389Z" fill-rule="nonzero"/><path fill="#4a86e8" clip-path="url(#id_0)" d="M342.9202 155.51389C342.9202 157.99918 340.9055 160.01389 338.4202 160.01389C335.9349 160.01389 333.9202 157.99918 333.9202 155.51389C333.9202 153.02861 335.9349 151.01389 338.4202 151.01389C340.9055 151.01389 342.9202 153.02861 342.9202 155.51389Z" fill-rule="nonzero"/><path fill="#4a86e8" clip-path="url(#id_0)" d="M312.69672 155.51389C312.69672 157.99918 310.682 160.01389 308.19672 160.01389C305.71146 160.01389 303.69672 157.99918 303.69672 155.51389C303.69672 153.02861 305.71146 151.01389 308.19672 151.01389C310.682 151.01389 312.69672 153.02861 312.69672 155.51389Z" fill-rule="nonzero"/><path fill="#4a86e8" clip-path="url(#id_0)" d="M299.8621 135.09445C299.8621 137.57973 297.84738 139.59445 295.3621 139.59445C292.87683 139.59445 290.8621 137.57973 290.8621 135.09445C290.8621 132.60916 292.87683 130.59445 295.3621 130.59445C297.84738 130.59445 299.8621 132.60916 299.8621 135.09445Z" fill-rule="nonzero"/><path fill="#4a86e8" clip-path="url(#id_0)" d="M541.64984 135.09445C541.64984 137.57973 539.63513 139.59445 537.14984 139.59445C534.66455 139.59445 532.64984 137.57973 532.64984 135.09445C532.64984 132.60916 534.66455 130.59445 537.14984 130.59445C539.63513 130.59445 541.64984 132.60916 541.64984 135.09445Z" fill-rule="nonzero"/><path fill="#4a86e8" clip-path="url(#id_0)" d="M457.18976 135.09445C457.18976 137.57973 455.17502 139.59445 452.68976 139.59445C450.20447 139.59445 448.18976 137.57973 448.18976 135.09445C448.18976 132.60916 450.20447 130.59445 452.68976 130.59445C455.17502 130.59445 457.18976 132.60916 457.18976 135.09445Z" fill-rule="nonzero"/><path fill="#4a86e8" clip-path="url(#id_0)" d="M373.9717 114.675C373.9717 117.16028 371.95697 119.175 369.4717 119.175C366.98642 119.175 364.9717 117.16028 364.9717 114.675C364.9717 112.18972 366.98642 110.175 369.4717 110.175C371.95697 110.175 373.9717 112.18972 373.9717 114.675Z" fill-rule="nonzero"/><path fill="#4a86e8" clip-path="url(#id_0)" d="M271.70874 94.255554C271.70874 96.74084 269.694 98.755554 267.20874 98.755554C264.72345 98.755554 262.70874 96.74084 262.70874 94.255554C262.70874 91.77027 264.72345 89.755554 267.20874 89.755554C269.694 89.755554 271.70874 91.77027 271.70874 94.255554Z" fill-rule="nonzero"/><path fill="#424242" d="M287.98438 349.45L287.98438 340.91876L290.40625 340.91876Q291.51562 340.91876 292.35938 341.41876Q293.21875 341.90314 293.6875 342.8094Q294.15625 343.71564 294.15625 344.90314L294.15625 345.4344Q294.15625 346.65314 293.6875 347.5594Q293.23438 348.46564 292.35938 348.95Q291.5 349.4344 290.35938 349.45L287.98438 349.45ZM289.10938 341.84064L289.10938 348.52814L290.29688 348.52814Q291.59375 348.52814 292.3125 347.73126Q293.04688 346.91876 293.04688 345.41876L293.04688 344.91876Q293.04688 343.46564 292.35938 342.66876Q291.6875 341.85626 290.42188 341.84064L289.10938 341.84064ZM297.0 349.45L295.92188 349.45L295.92188 343.10626L297.0 343.10626L297.0 349.45ZM295.82812 341.4344Q295.82812 341.16876 295.98438 340.98126Q296.15625 340.79376 296.46875 340.79376Q296.78125 340.79376 296.9375 340.98126Q297.10938 341.16876 297.10938 341.4344Q297.10938 341.6844 296.9375 341.8719Q296.78125 342.04376 296.46875 342.04376Q296.15625 342.04376 295.98438 341.8719Q295.82812 341.6844 295.82812 341.4344ZM299.35938 349.45L299.35938 343.95L298.35938 343.95L298.35938 343.10626L299.35938 343.10626L299.35938 342.46564Q299.35938 341.4344 299.89062 340.8875Q300.4375 340.325 301.4375 340.325Q301.8125 340.325 302.1875 340.41876L302.125 341.3094Q301.84375 341.2469 301.54688 341.2469Q301.01562 341.2469 300.71875 341.5594Q300.4375 341.8719 300.4375 342.4344L300.4375 343.10626L301.79688 343.10626L301.79688 343.95L300.4375 343.95L300.4375 349.45L299.35938 349.45ZM303.35938 349.45L303.35938 343.95L302.35938 343.95L302.35938 343.10626L303.35938 343.10626L303.35938 342.46564Q303.35938 341.4344 303.89062 340.8875Q304.4375 340.325 305.4375 340.325Q305.8125 340.325 306.1875 340.41876L306.125 341.3094Q305.84375 341.2469 305.54688 341.2469Q305.01562 341.2469 304.71875 341.5594Q304.4375 341.8719 304.4375 342.4344L304.4375 343.10626L305.79688 343.10626L305.79688 343.95L304.4375 343.95L304.4375 349.45L303.35938 349.45ZM308.0 349.45L306.92188 349.45L306.92188 343.10626L308.0 343.10626L308.0 349.45ZM306.82812 341.4344Q306.82812 341.16876 306.98438 340.98126Q307.15625 340.79376 307.46875 340.79376Q307.78125 340.79376 307.9375 340.98126Q308.10938 341.16876 308.10938 341.4344Q308.10938 341.6844 307.9375 341.8719Q307.78125 342.04376 307.46875 342.04376Q307.15625 342.04376 306.98438 341.8719Q306.82812 341.6844 306.82812 341.4344ZM312.35938 348.6844Q312.9375 348.6844 313.375 348.34064Q313.8125 347.98126 313.85938 347.45L314.89062 347.45Q314.85938 347.9969 314.5 348.4969Q314.15625 348.98126 313.57812 349.27814Q313.01562 349.575 312.35938 349.575Q311.0625 349.575 310.29688 348.71564Q309.54688 347.84064 309.54688 346.34064L309.54688 346.15314Q309.54688 345.23126 309.875 344.5125Q310.21875 343.79376 310.84375 343.40314Q311.48438 342.9969 312.35938 342.9969Q313.42188 342.9969 314.125 343.6375Q314.84375 344.2625 314.89062 345.29376L313.85938 345.29376Q313.8125 344.66876 313.39062 344.27814Q312.96875 343.8875 312.35938 343.8875Q311.53125 343.8875 311.07812 344.48126Q310.625 345.075 310.625 346.2L310.625 346.40314Q310.625 347.4969 311.07812 348.09064Q311.53125 348.6844 312.35938 348.6844ZM319.73438 348.825Q319.10938 349.575 317.875 349.575Q316.85938 349.575 316.32812 348.98126Q315.79688 348.3875 315.79688 347.23126L315.79688 343.10626L316.875 343.10626L316.875 347.2Q316.875 348.65314 318.04688 348.65314Q319.29688 348.65314 319.70312 347.71564L319.70312 343.10626L320.79688 343.10626L320.79688 349.45L319.76562 349.45L319.73438 348.825ZM324.0 349.45L322.92188 349.45L322.92188 340.45L324.0 340.45L324.0 349.45ZM327.29688 341.575L327.29688 343.10626L328.46875 343.10626L328.46875 343.95L327.29688 343.95L327.29688 347.8719Q327.29688 348.2625 327.45312 348.45Q327.60938 348.6375 327.98438 348.6375Q328.17188 348.6375 328.5 348.575L328.5 349.45Q328.07812 349.575 327.67188 349.575Q326.95312 349.575 326.57812 349.1375Q326.20312 348.6844 326.20312 347.8719L326.20312 343.95L325.04688 343.95L325.04688 343.10626L326.20312 343.10626L326.20312 341.575L327.29688 341.575ZM331.89062 347.85626L333.375 343.10626L334.53125 343.10626L331.98438 350.4344Q331.39062 352.0125 330.10938 352.0125L329.89062 351.9969L329.5 351.91876L329.5 351.04376L329.78125 351.0594Q330.34375 351.0594 330.64062 350.84064Q330.95312 350.6219 331.15625 350.02814L331.39062 349.3719L329.125 343.10626L330.3125 343.10626L331.89062 347.85626ZM342.125 345.9969L340.10938 345.9969L340.10938 349.45L338.98438 349.45L338.98438 340.91876L341.8125 340.91876Q343.25 340.91876 344.01562 341.575Q344.79688 342.23126 344.79688 343.48126Q344.79688 344.27814 344.35938 344.8719Q343.9375 345.46564 343.17188 345.7625L345.17188 349.3719L345.17188 349.45L343.96875 349.45L342.125 345.9969ZM340.10938 345.075L341.84375 345.075Q342.6875 345.075 343.17188 344.65314Q343.67188 344.21564 343.67188 343.48126Q343.67188 342.7 343.20312 342.27814Q342.73438 341.85626 341.84375 341.84064L340.10938 341.84064L340.10938 345.075ZM349.73438 349.45Q349.64062 349.2625 349.57812 348.77814Q348.82812 349.575 347.78125 349.575Q346.84375 349.575 346.23438 349.04376Q345.64062 348.5125 345.64062 347.6844Q345.64062 346.7 346.39062 346.15314Q347.14062 345.60626 348.51562 345.60626L349.5625 345.60626L349.5625 345.10626Q349.5625 344.54376 349.21875 344.21564Q348.89062 343.8719 348.21875 343.8719Q347.64062 343.8719 347.25 344.16876Q346.85938 344.45 346.85938 344.8719L345.76562 344.8719Q345.76562 344.3875 346.09375 343.95Q346.4375 343.5125 347.01562 343.2625Q347.59375 342.9969 348.28125 342.9969Q349.39062 342.9969 350.0 343.54376Q350.625 344.09064 350.65625 345.04376L350.65625 347.96564Q350.65625 348.84064 350.875 349.35626L350.875 349.45L349.73438 349.45ZM347.9375 348.6219Q348.45312 348.6219 348.90625 348.35626Q349.35938 348.09064 349.5625 347.66876L349.5625 346.3719L348.71875 346.3719Q346.71875 346.3719 346.71875 347.54376Q346.71875 348.04376 347.0625 348.34064Q347.40625 348.6219 347.9375 348.6219ZM354.29688 341.575L354.29688 343.10626L355.46875 343.10626L355.46875 343.95L354.29688 343.95L354.29688 347.8719Q354.29688 348.2625 354.45312 348.45Q354.60938 348.6375 354.98438 348.6375Q355.17188 348.6375 355.5 348.575L355.5 349.45Q355.07812 349.575 354.67188 349.575Q353.95312 349.575 353.57812 349.1375Q353.20312 348.6844 353.20312 347.8719L353.20312 343.95L352.04688 343.95L352.04688 343.10626L353.20312 343.10626L353.20312 341.575L354.29688 341.575ZM358.0 349.45L356.92188 349.45L356.92188 343.10626L358.0 343.10626L358.0 349.45ZM356.82812 341.4344Q356.82812 341.16876 356.98438 340.98126Q357.15625 340.79376 357.46875 340.79376Q357.78125 340.79376 357.9375 340.98126Q358.10938 341.16876 358.10938 341.4344Q358.10938 341.6844 357.9375 341.8719Q357.78125 342.04376 357.46875 342.04376Q357.15625 342.04376 356.98438 341.8719Q356.82812 341.6844 356.82812 341.4344ZM360.84375 343.10626L360.875 343.90314Q361.60938 342.9969 362.78125 342.9969Q364.79688 342.9969 364.8125 345.2625L364.8125 349.45L363.71875 349.45L363.71875 345.2469Q363.71875 344.575 363.40625 344.2469Q363.10938 343.91876 362.45312 343.91876Q361.92188 343.91876 361.51562 344.2Q361.125 344.48126 360.90625 344.9344L360.90625 349.45L359.82812 349.45L359.82812 343.10626L360.84375 343.10626ZM366.5625 346.23126Q366.5625 344.7469 367.25 343.8719Q367.9375 342.9969 369.0625 342.9969Q370.21875 342.9969 370.875 343.8094L370.92188 343.10626L371.92188 343.10626L371.92188 349.29376Q371.92188 350.52814 371.1875 351.23126Q370.45312 351.95 369.23438 351.95Q368.54688 351.95 367.89062 351.65314Q367.23438 351.35626 366.89062 350.85626L367.45312 350.2Q368.14062 351.0594 369.15625 351.0594Q369.9375 351.0594 370.375 350.60626Q370.82812 350.16876 370.82812 349.35626L370.82812 348.8094Q370.17188 349.575 369.04688 349.575Q367.9375 349.575 367.25 348.6844Q366.5625 347.77814 366.5625 346.23126ZM367.65625 346.35626Q367.65625 347.41876 368.09375 348.04376Q368.53125 348.65314 369.32812 348.65314Q370.34375 348.65314 370.82812 347.71564L370.82812 344.825Q370.32812 343.91876 369.32812 343.91876Q368.54688 343.91876 368.09375 344.52814Q367.65625 345.1375 367.65625 346.35626Z" fill-rule="nonzero"/><path fill="#424242" d="M30.550013 197.69896L22.018763 197.69896L22.018763 195.27708Q22.018763 194.16771 22.518763 193.32396Q23.003138 192.46458 23.909388 191.99583Q24.815638 191.52708 26.003138 191.52708L26.534388 191.52708Q27.753138 191.52708 28.659388 191.99583Q29.565638 192.44896 30.050013 193.32396Q30.534388 194.18333 30.550013 195.32396L30.550013 197.69896ZM22.940638 196.57396L29.628138 196.57396L29.628138 195.38646Q29.628138 194.08958 28.831263 193.37083Q28.018763 192.63646 26.518763 192.63646L26.018763 192.63646Q24.565638 192.63646 23.768763 193.32396Q22.956263 193.99583 22.940638 195.26146L22.940638 196.57396ZM30.675013 187.23021Q30.675013 188.52708 29.831263 189.33958Q28.971888 190.13646 27.550013 190.13646L27.362513 190.13646Q26.409388 190.13646 25.675013 189.77708Q24.925013 189.41771 24.518763 188.77708Q24.096888 188.12083 24.096888 187.37083Q24.096888 186.13646 24.909388 185.44896Q25.721888 184.76146 27.237513 184.76146L27.690638 184.76146L27.690638 189.05833Q28.628138 189.02708 29.206263 188.51146Q29.784388 187.98021 29.784388 187.16771Q29.784388 186.60521 29.550013 186.21458Q29.315638 185.80833 28.925013 185.49583L29.440638 184.83958Q30.675013 185.63646 30.675013 187.23021ZM24.987513 187.37083Q24.987513 188.02708 25.471888 188.48021Q25.940638 188.91771 26.800013 189.01146L26.800013 185.83958L26.721888 185.83958Q25.893763 185.88646 25.440638 186.29271Q24.987513 186.68333 24.987513 187.37083ZM27.456263 178.51146Q28.893763 178.51146 29.784388 179.16771Q30.675013 179.82396 30.675013 180.96458Q30.675013 182.12083 29.940638 182.77708L32.98751 182.77708L32.98751 183.85521L24.206263 183.85521L24.206263 182.87083L24.909388 182.82396Q24.096888 182.15208 24.096888 180.98021Q24.096888 179.83958 24.956263 179.18333Q25.815638 178.51146 27.346888 178.51146L27.456263 178.51146ZM27.331263 179.58958Q26.253138 179.58958 25.643763 180.05833Q25.018763 180.51146 25.018763 181.30833Q25.018763 182.29271 25.878138 182.77708L28.909388 182.77708Q29.784388 182.29271 29.784388 181.29271Q29.784388 180.51146 29.175013 180.05833Q28.550013 179.58958 27.331263 179.58958ZM22.675013 175.38646L24.206263 175.38646L24.206263 174.21458L25.050013 174.21458L25.050013 175.38646L28.971888 175.38646Q29.362513 175.38646 29.550013 175.23021Q29.737513 175.07396 29.737513 174.69896Q29.737513 174.51146 29.675013 174.18333L30.550013 174.18333Q30.675013 174.60521 30.675013 175.01146Q30.675013 175.73021 30.237513 176.10521Q29.784388 176.48021 28.971888 176.48021L25.050013 176.48021L25.050013 177.63646L24.206263 177.63646L24.206263 176.48021L22.675013 176.48021L22.675013 175.38646ZM24.971888 171.77708Q24.096888 171.05833 24.096888 169.90208Q24.096888 167.88646 26.362513 167.87083L30.550013 167.87083L30.550013 168.96458L26.346888 168.96458Q25.675013 168.96458 25.346888 169.27708Q25.018763 169.57396 25.018763 170.23021Q25.018763 170.76146 25.300013 171.16771Q25.581263 171.55833 26.034388 171.77708L30.550013 171.77708L30.550013 172.85521L21.550013 172.85521L21.550013 171.77708L24.971888 171.77708Z" fill-rule="nonzero"/><path fill="#757575" d="M71.6125 299.3094Q71.6125 301.21564 70.95625 302.15314Q70.31563 303.075 68.925 303.075Q67.56563 303.075 66.90938 302.16876Q66.25313 301.2625 66.22188 299.45L66.22188 298.0125Q66.22188 296.1219 66.8625 295.21564Q67.51875 294.29376 68.90938 294.29376Q70.28438 294.29376 70.94063 295.1844Q71.59688 296.0594 71.6125 297.90314L71.6125 299.3094ZM70.51875 297.825Q70.51875 296.45 70.12813 295.825Q69.75313 295.1844 68.90938 295.1844Q68.08125 295.1844 67.69063 295.825Q67.31563 296.45 67.31563 297.7469L67.31563 299.48126Q67.31563 300.85626 67.70625 301.52814Q68.1125 302.1844 68.925 302.1844Q69.72188 302.1844 70.1125 301.5594Q70.50313 300.9344 70.51875 299.60626L70.51875 297.825Z" fill-rule="nonzero"/><path fill="#757575" d="M71.84688 262.1111L66.25313 262.1111L66.25313 261.32986L69.20625 258.0486Q69.8625 257.2986 70.1125 256.8455Q70.3625 256.37674 70.3625 255.87674Q70.3625 255.20486 69.95625 254.78299Q69.56563 254.34549 68.87813 254.34549Q68.08125 254.34549 67.62813 254.81424Q67.175 255.26736 67.175 256.0955L66.09688 256.0955Q66.09688 254.90799 66.84688 254.18924Q67.6125 253.45486 68.87813 253.45486Q70.08125 253.45486 70.76875 254.07986Q71.45625 254.70486 71.45625 255.75174Q71.45625 257.00174 69.84688 258.75174L67.56563 261.2205L71.84688 261.2205L71.84688 262.1111Z" fill-rule="nonzero"/><path fill="#757575" d="M70.83125 218.41284L72.01875 218.41284L72.01875 219.28784L70.83125 219.28784L70.83125 221.27222L69.75313 221.27222L69.75313 219.28784L65.8625 219.28784L65.8625 218.64722L69.675 212.74097L70.83125 212.74097L70.83125 218.41284ZM67.09688 218.41284L69.75313 218.41284L69.75313 214.22534L69.6125 214.45972L67.09688 218.41284Z" fill-rule="nonzero"/><path fill="#757575" d="M70.51875 171.90208L70.51875 172.80833L70.31563 172.80833Q69.05 172.83958 68.3 173.57396Q67.55 174.29271 67.425 175.60521Q68.1125 174.83958 69.26875 174.83958Q70.37813 174.83958 71.05 175.62083Q71.72188 176.40208 71.72188 177.65208Q71.72188 178.96458 71.00313 179.76146Q70.28438 180.55833 69.06563 180.55833Q67.84688 180.55833 67.08125 179.62083Q66.33125 178.66771 66.33125 177.18333L66.33125 176.77708Q66.33125 174.41771 67.33125 173.16771Q68.33125 171.91771 70.31563 171.90208L70.51875 171.90208ZM69.09688 175.74583Q68.53438 175.74583 68.06563 176.07396Q67.59688 176.40208 67.40938 176.91771L67.40938 177.30833Q67.40938 178.37083 67.87813 179.01146Q68.3625 179.65208 69.06563 179.65208Q69.8 179.65208 70.22188 179.12083Q70.64375 178.57396 70.64375 177.69896Q70.64375 176.82396 70.22188 176.29271Q69.8 175.74583 69.09688 175.74583Z" fill-rule="nonzero"/><path fill="#757575" d="M71.44063 133.28195Q71.44063 133.92258 71.09688 134.42258Q70.75313 134.92258 70.19063 135.20383Q70.84688 135.48508 71.2375 136.04758Q71.62813 136.59445 71.62813 137.29758Q71.62813 138.39133 70.87813 139.0632Q70.14375 139.71945 68.925 139.71945Q67.69063 139.71945 66.94063 139.0632Q66.20625 138.39133 66.20625 137.29758Q66.20625 136.59445 66.58125 136.04758Q66.95625 135.48508 67.62813 135.20383Q67.06563 134.92258 66.7375 134.42258Q66.40938 133.92258 66.40938 133.28195Q66.40938 132.20383 67.09688 131.57883Q67.78438 130.9382 68.925 130.9382Q70.05 130.9382 70.7375 131.57883Q71.44063 132.20383 71.44063 133.28195ZM70.55 137.26633Q70.55 136.54758 70.09688 136.11008Q69.64375 135.65695 68.90938 135.65695Q68.175 135.65695 67.72188 136.11008Q67.28438 136.54758 67.28438 137.28195Q67.28438 138.0007 67.72188 138.42258Q68.15938 138.82883 68.925 138.82883Q69.675 138.82883 70.1125 138.40695Q70.55 137.98508 70.55 137.26633ZM68.925 131.82883Q68.28438 131.82883 67.87813 132.23508Q67.4875 132.6257 67.4875 133.3132Q67.4875 133.95383 67.87813 134.36008Q68.26875 134.76633 68.90938 134.76633Q69.56563 134.76633 69.95625 134.36008Q70.34688 133.95383 70.34688 133.3132Q70.34688 132.65695 69.94063 132.2507Q69.53438 131.82883 68.925 131.82883Z" fill-rule="nonzero"/><path fill="#757575" d="M62.815624 98.755554L61.7375 98.755554L61.7375 91.536804L59.55 92.33368L59.55 91.349304L62.659374 90.17743L62.815624 90.17743L62.815624 98.755554ZM71.6125 95.11493Q71.6125 97.02118 70.95625 97.95868Q70.31563 98.880554 68.925 98.880554Q67.56563 98.880554 66.90938 97.974304Q66.25313 97.068054 66.22188 95.255554L66.22188 93.818054Q66.22188 91.92743 66.8625 91.02118Q67.51875 90.099304 68.90938 90.099304Q70.28438 90.099304 70.94063 90.98993Q71.59688 91.86493 71.6125 93.70868L71.6125 95.11493ZM70.51875 93.630554Q70.51875 92.255554 70.12813 91.630554Q69.75313 90.98993 68.90938 90.98993Q68.08125 90.98993 67.69063 91.630554Q67.31563 92.255554 67.31563 93.55243L67.31563 95.286804Q67.31563 96.661804 67.70625 97.33368Q68.1125 97.98993 68.925 97.98993Q69.72188 97.98993 70.1125 97.36493Q70.50313 96.73993 70.51875 95.411804L70.51875 93.630554Z" fill-rule="nonzero"/><path fill="#757575" d="M62.815624 57.916668L61.7375 57.916668L61.7375 50.697918L59.55 51.494793L59.55 50.510418L62.659374 49.338543L62.815624 49.338543L62.815624 57.916668ZM71.84688 57.916668L66.25313 57.916668L66.25313 57.135418L69.20625 53.854168Q69.8625 53.104168 70.1125 52.651043Q70.3625 52.182293 70.3625 51.682293Q70.3625 51.010418 69.95625 50.588543Q69.56563 50.151043 68.87813 50.151043Q68.08125 50.151043 67.62813 50.619793Q67.175 51.072918 67.175 51.901043L66.09688 51.901043Q66.09688 50.713543 66.84688 49.994793Q67.6125 49.260418 68.87813 49.260418Q70.08125 49.260418 70.76875 49.885418Q71.45625 50.510418 71.45625 51.557293Q71.45625 52.807293 69.84688 54.557293L67.56563 57.026043L71.84688 57.026043L71.84688 57.916668Z" fill-rule="nonzero"/><path fill="#757575" d="M101.045616 308.52814L97.514366 316.45L96.37374 316.45L99.889366 308.8094L95.27999 308.8094L95.27999 307.91876L101.045616 307.91876L101.045616 308.52814ZM103.02999 312.16876L103.46749 307.91876L107.84249 307.91876L107.84249 308.91876L104.389366 308.91876L104.12374 311.2469Q104.764366 310.8719 105.56124 310.8719Q106.71749 310.8719 107.40499 311.65314Q108.09249 312.41876 108.09249 313.73126Q108.09249 315.04376 107.37374 315.8094Q106.670616 316.575 105.389366 316.575Q104.264366 316.575 103.545616 315.95Q102.826866 315.3094 102.733116 314.2L103.74874 314.2Q103.858116 314.9344 104.27999 315.3094Q104.701866 315.6844 105.389366 315.6844Q106.139366 315.6844 106.576866 315.16876Q107.014366 314.65314 107.014366 313.7469Q107.014366 312.8875 106.545616 312.3719Q106.076866 311.85626 105.295616 311.85626Q104.59249 311.85626 104.18624 312.15314L103.90499 312.3875L103.02999 312.16876ZM114.889366 312.8094Q114.889366 314.71564 114.233116 315.65314Q113.59249 316.575 112.201866 316.575Q110.84249 316.575 110.18624 315.66876Q109.52999 314.7625 109.49874 312.95L109.49874 311.5125Q109.49874 309.6219 110.139366 308.71564Q110.795616 307.79376 112.18624 307.79376Q113.56124 307.79376 114.21749 308.6844Q114.87374 309.5594 114.889366 311.40314L114.889366 312.8094ZM113.795616 311.325Q113.795616 309.95 113.40499 309.325Q113.02999 308.6844 112.18624 308.6844Q111.358116 308.6844 110.96749 309.325Q110.59249 309.95 110.59249 311.2469L110.59249 312.98126Q110.59249 314.35626 110.983116 315.02814Q111.389366 315.6844 112.201866 315.6844Q112.99874 315.6844 113.389366 315.0594Q113.77999 314.4344 113.795616 313.10626L113.795616 311.325Z" fill-rule="nonzero"/><path fill="#757575" d="M199.09752 316.45L198.0194 316.45L198.0194 309.23126L195.8319 310.02814L195.8319 309.04376L198.94127 307.8719L199.09752 307.8719L199.09752 316.45ZM207.8944 312.8094Q207.8944 314.71564 207.23814 315.65314Q206.59752 316.575 205.2069 316.575Q203.84752 316.575 203.19127 315.66876Q202.53502 314.7625 202.50377 312.95L202.50377 311.5125Q202.50377 309.6219 203.1444 308.71564Q203.80064 307.79376 205.19127 307.79376Q206.56627 307.79376 207.22252 308.6844Q207.87877 309.5594 207.8944 311.40314L207.8944 312.8094ZM206.80064 311.325Q206.80064 309.95 206.41002 309.325Q206.03502 308.6844 205.19127 308.6844Q204.36314 308.6844 203.97252 309.325Q203.59752 309.95 203.59752 311.2469L203.59752 312.98126Q203.59752 314.35626 203.98814 315.02814Q204.3944 315.6844 205.2069 315.6844Q206.00377 315.6844 206.3944 315.0594Q206.78502 314.4344 206.80064 313.10626L206.80064 311.325ZM214.8944 312.8094Q214.8944 314.71564 214.23814 315.65314Q213.59752 316.575 212.2069 316.575Q210.84752 316.575 210.19127 315.66876Q209.53502 314.7625 209.50377 312.95L209.50377 311.5125Q209.50377 309.6219 210.1444 308.71564Q210.80064 307.79376 212.19127 307.79376Q213.56627 307.79376 214.22252 308.6844Q214.87877 309.5594 214.8944 311.40314L214.8944 312.8094ZM213.80064 311.325Q213.80064 309.95 213.41002 309.325Q213.03502 308.6844 212.19127 308.6844Q211.36314 308.6844 210.97252 309.325Q210.59752 309.95 210.59752 311.2469L210.59752 312.98126Q210.59752 314.35626 210.98814 315.02814Q211.3944 315.6844 212.2069 315.6844Q213.00377 315.6844 213.3944 315.0594Q213.78502 314.4344 213.80064 313.10626L213.80064 311.325ZM221.8944 312.8094Q221.8944 314.71564 221.23814 315.65314Q220.59752 316.575 219.2069 316.575Q217.84752 316.575 217.19127 315.66876Q216.53502 314.7625 216.50377 312.95L216.50377 311.5125Q216.50377 309.6219 217.1444 308.71564Q217.80064 307.79376 219.19127 307.79376Q220.56627 307.79376 221.22252 308.6844Q221.87877 309.5594 221.8944 311.40314L221.8944 312.8094ZM220.80064 311.325Q220.80064 309.95 220.41002 309.325Q220.03502 308.6844 219.19127 308.6844Q218.36314 308.6844 217.97252 309.325Q217.59752 309.95 217.59752 311.2469L217.59752 312.98126Q217.59752 314.35626 217.98814 315.02814Q218.3944 315.6844 219.2069 315.6844Q220.00377 315.6844 220.3944 315.0594Q220.78502 314.4344 220.80064 313.10626L220.80064 311.325Z" fill-rule="nonzero"/><path fill="#757575" d="M302.60254 316.45L301.5244 316.45L301.5244 309.23126L299.3369 310.02814L299.3369 309.04376L302.4463 307.8719L302.60254 307.8719L302.60254 316.45ZM311.6338 316.45L306.04004 316.45L306.04004 315.66876L308.99316 312.3875Q309.6494 311.6375 309.8994 311.1844Q310.1494 310.71564 310.1494 310.21564Q310.1494 309.54376 309.74316 309.1219Q309.35254 308.6844 308.66504 308.6844Q307.86816 308.6844 307.41504 309.15314Q306.9619 309.60626 306.9619 310.4344L305.8838 310.4344Q305.8838 309.2469 306.6338 308.52814Q307.3994 307.79376 308.66504 307.79376Q309.86816 307.79376 310.55566 308.41876Q311.24316 309.04376 311.24316 310.09064Q311.24316 311.34064 309.6338 313.09064L307.35254 315.5594L311.6338 315.5594L311.6338 316.45ZM313.54004 312.16876L313.97754 307.91876L318.35254 307.91876L318.35254 308.91876L314.8994 308.91876L314.6338 311.2469Q315.2744 310.8719 316.0713 310.8719Q317.22754 310.8719 317.91504 311.65314Q318.60254 312.41876 318.60254 313.73126Q318.60254 315.04376 317.8838 315.8094Q317.18066 316.575 315.8994 316.575Q314.7744 316.575 314.05566 315.95Q313.3369 315.3094 313.24316 314.2L314.2588 314.2Q314.36816 314.9344 314.79004 315.3094Q315.2119 315.6844 315.8994 315.6844Q316.6494 315.6844 317.0869 315.16876Q317.5244 314.65314 317.5244 313.7469Q317.5244 312.8875 317.05566 312.3719Q316.5869 311.85626 315.80566 311.85626Q315.10254 311.85626 314.6963 312.15314L314.41504 312.3875L313.54004 312.16876ZM325.3994 312.8094Q325.3994 314.71564 324.74316 315.65314Q324.10254 316.575 322.7119 316.575Q321.35254 316.575 320.6963 315.66876Q320.04004 314.7625 320.0088 312.95L320.0088 311.5125Q320.0088 309.6219 320.6494 308.71564Q321.30566 307.79376 322.6963 307.79376Q324.0713 307.79376 324.72754 308.6844Q325.3838 309.5594 325.3994 311.40314L325.3994 312.8094ZM324.30566 311.325Q324.30566 309.95 323.91504 309.325Q323.54004 308.6844 322.6963 308.6844Q321.86816 308.6844 321.47754 309.325Q321.10254 309.95 321.10254 311.2469L321.10254 312.98126Q321.10254 314.35626 321.49316 315.02814Q321.8994 315.6844 322.7119 315.6844Q323.5088 315.6844 323.8994 315.0594Q324.29004 314.4344 324.30566 313.10626L324.30566 311.325Z" fill-rule="nonzero"/><path fill="#757575" d="M406.10757 316.45L405.02945 316.45L405.02945 309.23126L402.84195 310.02814L402.84195 309.04376L405.95132 307.8719L406.10757 307.8719L406.10757 316.45ZM410.04507 312.16876L410.48257 307.91876L414.85757 307.91876L414.85757 308.91876L411.40445 308.91876L411.13882 311.2469Q411.77945 310.8719 412.57632 310.8719Q413.73257 310.8719 414.42007 311.65314Q415.10757 312.41876 415.10757 313.73126Q415.10757 315.04376 414.38882 315.8094Q413.6857 316.575 412.40445 316.575Q411.27945 316.575 410.5607 315.95Q409.84195 315.3094 409.7482 314.2L410.76382 314.2Q410.8732 314.9344 411.29507 315.3094Q411.71695 315.6844 412.40445 315.6844Q413.15445 315.6844 413.59195 315.16876Q414.02945 314.65314 414.02945 313.7469Q414.02945 312.8875 413.5607 312.3719Q413.09195 311.85626 412.3107 311.85626Q411.60757 311.85626 411.20132 312.15314L410.92007 312.3875L410.04507 312.16876ZM421.90445 312.8094Q421.90445 314.71564 421.2482 315.65314Q420.60757 316.575 419.21695 316.575Q417.85757 316.575 417.20132 315.66876Q416.54507 314.7625 416.51382 312.95L416.51382 311.5125Q416.51382 309.6219 417.15445 308.71564Q417.8107 307.79376 419.20132 307.79376Q420.57632 307.79376 421.23257 308.6844Q421.88882 309.5594 421.90445 311.40314L421.90445 312.8094ZM420.8107 311.325Q420.8107 309.95 420.42007 309.325Q420.04507 308.6844 419.20132 308.6844Q418.3732 308.6844 417.98257 309.325Q417.60757 309.95 417.60757 311.2469L417.60757 312.98126Q417.60757 314.35626 417.9982 315.02814Q418.40445 315.6844 419.21695 315.6844Q420.01382 315.6844 420.40445 315.0594Q420.79507 314.4344 420.8107 313.10626L420.8107 311.325ZM428.90445 312.8094Q428.90445 314.71564 428.2482 315.65314Q427.60757 316.575 426.21695 316.575Q424.85757 316.575 424.20132 315.66876Q423.54507 314.7625 423.51382 312.95L423.51382 311.5125Q423.51382 309.6219 424.15445 308.71564Q424.8107 307.79376 426.20132 307.79376Q427.57632 307.79376 428.23257 308.6844Q428.88882 309.5594 428.90445 311.40314L428.90445 312.8094ZM427.8107 311.325Q427.8107 309.95 427.42007 309.325Q427.04507 308.6844 426.20132 308.6844Q425.3732 308.6844 424.98257 309.325Q424.60757 309.95 424.60757 311.2469L424.60757 312.98126Q424.60757 314.35626 424.9982 315.02814Q425.40445 315.6844 426.21695 315.6844Q427.01382 315.6844 427.40445 315.0594Q427.79507 314.4344 427.8107 313.10626L427.8107 311.325Z" fill-rule="nonzero"/><path fill="#757575" d="M509.6126 316.45L508.5345 316.45L508.5345 309.23126L506.347 310.02814L506.347 309.04376L509.45636 307.8719L509.6126 307.8719L509.6126 316.45ZM518.56573 308.52814L515.0345 316.45L513.89386 316.45L517.4095 308.8094L512.8001 308.8094L512.8001 307.91876L518.56573 307.91876L518.56573 308.52814ZM520.5501 312.16876L520.9876 307.91876L525.3626 307.91876L525.3626 308.91876L521.9095 308.91876L521.64386 311.2469Q522.2845 310.8719 523.08136 310.8719Q524.2376 310.8719 524.9251 311.65314Q525.6126 312.41876 525.6126 313.73126Q525.6126 315.04376 524.89386 315.8094Q524.19073 316.575 522.9095 316.575Q521.7845 316.575 521.06573 315.95Q520.347 315.3094 520.25323 314.2L521.26886 314.2Q521.37823 314.9344 521.8001 315.3094Q522.222 315.6844 522.9095 315.6844Q523.6595 315.6844 524.097 315.16876Q524.5345 314.65314 524.5345 313.7469Q524.5345 312.8875 524.06573 312.3719Q523.597 311.85626 522.81573 311.85626Q522.1126 311.85626 521.70636 312.15314L521.4251 312.3875L520.5501 312.16876ZM532.4095 312.8094Q532.4095 314.71564 531.75323 315.65314Q531.1126 316.575 529.722 316.575Q528.3626 316.575 527.70636 315.66876Q527.0501 314.7625 527.01886 312.95L527.01886 311.5125Q527.01886 309.6219 527.6595 308.71564Q528.31573 307.79376 529.70636 307.79376Q531.08136 307.79376 531.7376 308.6844Q532.39386 309.5594 532.4095 311.40314L532.4095 312.8094ZM531.31573 311.325Q531.31573 309.95 530.9251 309.325Q530.5501 308.6844 529.70636 308.6844Q528.87823 308.6844 528.4876 309.325Q528.1126 309.95 528.1126 311.2469L528.1126 312.98126Q528.1126 314.35626 528.50323 315.02814Q528.9095 315.6844 529.722 315.6844Q530.51886 315.6844 530.9095 315.0594Q531.3001 314.4344 531.31573 313.10626L531.31573 311.325Z" fill-rule="nonzero"/><path fill="#4a86e8" d="M246.0 26.05C246.0 29.363708 243.3137 32.05 240.0 32.05C236.6863 32.05 234.0 29.363708 234.0 26.05C234.0 22.736292 236.6863 20.05 240.0 20.05C243.3137 20.05 246.0 22.736292 246.0 26.05Z" fill-rule="nonzero"/><path fill="#4a86e8" d="M256.4375 22.01875L259.23438 28.971874L262.01562 22.01875L263.48438 22.01875L263.48438 30.55L262.35938 30.55L262.35938 27.221874L262.46875 23.64375L259.65625 30.55L258.79688 30.55L256.0 23.659374L256.10938 27.221874L256.10938 30.55L254.98438 30.55L254.98438 22.01875L256.4375 22.01875ZM266.0 30.55L264.92188 30.55L264.92188 24.20625L266.0 24.20625L266.0 30.55ZM264.82812 22.534374Q264.82812 22.26875 264.98438 22.08125Q265.15625 21.89375 265.46875 21.89375Q265.78125 21.89375 265.9375 22.08125Q266.10938 22.26875 266.10938 22.534374Q266.10938 22.784374 265.9375 22.971874Q265.78125 23.14375 265.46875 23.14375Q265.15625 23.14375 264.98438 22.971874Q264.82812 22.784374 264.82812 22.534374ZM267.5625 27.33125Q267.5625 25.8625 268.25 24.9875Q268.9375 24.096874 270.0625 24.096874Q271.17188 24.096874 271.82812 24.846874L271.82812 21.55L272.90625 21.55L272.90625 30.55L271.90625 30.55L271.85938 29.8625Q271.20312 30.675 270.04688 30.675Q268.95312 30.675 268.25 29.76875Q267.5625 28.8625 267.5625 27.409374L267.5625 27.33125ZM268.64062 27.45625Q268.64062 28.534374 269.07812 29.14375Q269.53125 29.753124 270.3125 29.753124Q271.34375 29.753124 271.82812 28.815624L271.82812 25.909374Q271.34375 25.01875 270.32812 25.01875Q269.53125 25.01875 269.07812 25.628124Q268.64062 26.2375 268.64062 27.45625ZM274.5625 27.33125Q274.5625 25.8625 275.25 24.9875Q275.9375 24.096874 277.0625 24.096874Q278.17188 24.096874 278.82812 24.846874L278.82812 21.55L279.90625 21.55L279.90625 30.55L278.90625 30.55L278.85938 29.8625Q278.20312 30.675 277.04688 30.675Q275.95312 30.675 275.25 29.76875Q274.5625 28.8625 274.5625 27.409374L274.5625 27.33125ZM275.64062 27.45625Q275.64062 28.534374 276.07812 29.14375Q276.53125 29.753124 277.3125 29.753124Q278.34375 29.753124 278.82812 28.815624L278.82812 25.909374Q278.34375 25.01875 277.32812 25.01875Q276.53125 25.01875 276.07812 25.628124Q275.64062 26.2375 275.64062 27.45625ZM283.0 30.55L281.92188 30.55L281.92188 21.55L283.0 21.55L283.0 30.55ZM287.45312 30.675Q286.15625 30.675 285.34375 29.83125Q284.54688 28.971874 284.54688 27.55L284.54688 27.3625Q284.54688 26.409374 284.90625 25.675Q285.26562 24.925 285.90625 24.51875Q286.5625 24.096874 287.3125 24.096874Q288.54688 24.096874 289.23438 24.909374Q289.92188 25.721874 289.92188 27.2375L289.92188 27.690624L285.625 27.690624Q285.65625 28.628124 286.17188 29.20625Q286.70312 29.784374 287.51562 29.784374Q288.07812 29.784374 288.46875 29.55Q288.875 29.315624 289.1875 28.925L289.84375 29.440624Q289.04688 30.675 287.45312 30.675ZM287.3125 24.9875Q286.65625 24.9875 286.20312 25.471874Q285.76562 25.940624 285.67188 26.8L288.84375 26.8L288.84375 26.721874Q288.79688 25.89375 288.39062 25.440624Q288.0 24.9875 287.3125 24.9875Z" fill-rule="nonzero"/><path stroke="#4285f4" stroke-width="4.0" stroke-linecap="butt" stroke-opacity="0.5019608" d="M306.0 26.05L318.0 26.05" fill-rule="nonzero"/><path fill="#4a86e8" d="M326.98438 30.55L326.98438 22.01875L329.78125 22.01875Q331.17188 22.01875 331.85938 22.596874Q332.5625 23.159374 332.5625 24.284374Q332.5625 24.89375 332.21875 25.3625Q331.89062 25.815624 331.29688 26.065624Q332.0 26.253124 332.39062 26.8Q332.79688 27.33125 332.79688 28.08125Q332.79688 29.2375 332.04688 29.89375Q331.3125 30.55 329.95312 30.55L326.98438 30.55ZM328.10938 26.565624L328.10938 29.628124L329.96875 29.628124Q330.76562 29.628124 331.21875 29.221874Q331.67188 28.815624 331.67188 28.096874Q331.67188 26.565624 329.98438 26.565624L328.10938 26.565624ZM328.10938 25.659374L329.8125 25.659374Q330.54688 25.659374 330.98438 25.3Q331.4375 24.925 331.4375 24.284374Q331.4375 23.58125 331.03125 23.26875Q330.625 22.940624 329.78125 22.940624L328.10938 22.940624L328.10938 25.659374ZM336.45312 30.675Q335.15625 30.675 334.34375 29.83125Q333.54688 28.971874 333.54688 27.55L333.54688 27.3625Q333.54688 26.409374 333.90625 25.675Q334.26562 24.925 334.90625 24.51875Q335.5625 24.096874 336.3125 24.096874Q337.54688 24.096874 338.23438 24.909374Q338.92188 25.721874 338.92188 27.2375L338.92188 27.690624L334.625 27.690624Q334.65625 28.628124 335.17188 29.20625Q335.70312 29.784374 336.51562 29.784374Q337.07812 29.784374 337.46875 29.55Q337.875 29.315624 338.1875 28.925L338.84375 29.440624Q338.04688 30.675 336.45312 30.675ZM336.3125 24.9875Q335.65625 24.9875 335.20312 25.471874Q334.76562 25.940624 334.67188 26.8L337.84375 26.8L337.84375 26.721874Q337.79688 25.89375 337.39062 25.440624Q337.0 24.9875 336.3125 24.9875ZM343.51562 28.8625Q343.51562 28.425 343.17188 28.190624Q342.84375 27.940624 342.01562 27.76875Q341.20312 27.596874 340.71875 27.346874Q340.23438 27.096874 340.0 26.76875Q339.78125 26.425 339.78125 25.95625Q339.78125 25.175 340.4375 24.64375Q341.09375 24.096874 342.125 24.096874Q343.20312 24.096874 343.85938 24.659374Q344.53125 25.20625 344.53125 26.065624L343.45312 26.065624Q343.45312 25.628124 343.0625 25.315624Q342.6875 24.9875 342.125 24.9875Q341.53125 24.9875 341.1875 25.253124Q340.85938 25.503124 340.85938 25.909374Q340.85938 26.3 341.17188 26.503124Q341.48438 26.70625 342.29688 26.89375Q343.10938 27.065624 343.60938 27.315624Q344.10938 27.565624 344.34375 27.925Q344.59375 28.284374 344.59375 28.784374Q344.59375 29.64375 343.90625 30.159374Q343.23438 30.675 342.15625 30.675Q341.39062 30.675 340.79688 30.409374Q340.21875 30.128124 339.89062 29.64375Q339.5625 29.159374 339.5625 28.596874L340.64062 28.596874Q340.67188 29.14375 341.07812 29.471874Q341.48438 29.784374 342.15625 29.784374Q342.76562 29.784374 343.14062 29.534374Q343.51562 29.284374 343.51562 28.8625ZM347.29688 22.675L347.29688 24.20625L348.46875 24.20625L348.46875 25.05L347.29688 25.05L347.29688 28.971874Q347.29688 29.3625 347.45312 29.55Q347.60938 29.7375 347.98438 29.7375Q348.17188 29.7375 348.5 29.675L348.5 30.55Q348.07812 30.675 347.67188 30.675Q346.95312 30.675 346.57812 30.2375Q346.20312 29.784374 346.20312 28.971874L346.20312 25.05L345.04688 25.05L345.04688 24.20625L346.20312 24.20625L346.20312 22.675L347.29688 22.675ZM357.70312 26.784374L354.10938 26.784374L354.10938 30.55L352.98438 30.55L352.98438 22.01875L358.28125 22.01875L358.28125 22.940624L354.10938 22.940624L354.10938 25.8625L357.70312 25.8625L357.70312 26.784374ZM361.0 30.55L359.92188 30.55L359.92188 24.20625L361.0 24.20625L361.0 30.55ZM359.82812 22.534374Q359.82812 22.26875 359.98438 22.08125Q360.15625 21.89375 360.46875 21.89375Q360.78125 21.89375 360.9375 22.08125Q361.10938 22.26875 361.10938 22.534374Q361.10938 22.784374 360.9375 22.971874Q360.78125 23.14375 360.46875 23.14375Q360.15625 23.14375 359.98438 22.971874Q359.82812 22.784374 359.82812 22.534374ZM364.29688 22.675L364.29688 24.20625L365.46875 24.20625L365.46875 25.05L364.29688 25.05L364.29688 28.971874Q364.29688 29.3625 364.45312 29.55Q364.60938 29.7375 364.98438 29.7375Q365.17188 29.7375 365.5 29.675L365.5 30.55Q365.07812 30.675 364.67188 30.675Q363.95312 30.675 363.57812 30.2375Q363.20312 29.784374 363.20312 28.971874L363.20312 25.05L362.04688 25.05L362.04688 24.20625L363.20312 24.20625L363.20312 22.675L364.29688 22.675Z" fill-rule="nonzero"/></svg>