<svg version="1.1" viewBox="0.0 0.0 600.0 371.0" fill="none" stroke="none" stroke-linecap="square" stroke-miterlimit="10" width="600" height="371" xmlns:xlink="http://www.w3.org/1999/xlink" xmlns="http://www.w3.org/2000/svg"><path fill="#ffffff" d="M0 0L600.0 0L600.0 371.0L0 371.0L0 0Z" fill-rule="nonzero"/><path stroke="#cccccc" stroke-width="1.0" stroke-linecap="butt" d="M145.5 53.5L145.5 298.5" fill-rule="nonzero"/><path stroke="#cccccc" stroke-width="1.0" stroke-linecap="butt" d="M242.5 53.5L242.5 298.5" fill-rule="nonzero"/><path stroke="#cccccc" stroke-width="1.0" stroke-linecap="butt" d="M339.5 53.5L339.5 298.5" fill-rule="nonzero"/><path stroke="#cccccc" stroke-width="1.0" stroke-linecap="butt" d="M436.5 53.5L436.5 298.5" fill-rule="nonzero"/><path stroke="#cccccc" stroke-width="1.0" stroke-linecap="butt" d="M533.5 53.5L533.5 298.5" fill-rule="nonzero"/><path stroke="#333333" stroke-width="1.0" stroke-linecap="butt" d="M78.5 298.5L581.5 298.5" fill-rule="nonzero"/><path stroke="#cccccc" stroke-width="1.0" stroke-linecap="butt" d="M78.5 257.5L581.5 257.5" fill-rule="nonzero"/><path stroke="#cccccc" stroke-width="1.0" stroke-linecap="butt" d="M78.5 216.5L581.5 216.5" fill-rule="nonzero"/><path stroke="#cccccc" stroke-width="1.0" stroke-linecap="butt" d="M78.5 175.5L581.5 175.5" fill-rule="nonzero"/><path stroke="#cccccc" stroke-width="1.0" stroke-linecap="butt" d="M78.5 135.5L581.5 135.5" fill-rule="nonzero"/><path stroke="#cccccc" stroke-width="1.0" stroke-linecap="butt" d="M78.5 94.5L581.5 94.5" fill-rule="nonzero"/><path stroke="#cccccc" stroke-width="1.0" stroke-linecap="butt" d="M78.5 53.5L581.5 53.5" fill-rule="nonzero"/><clipPath id="id_0"><path d="M78.55 53.416668L581.45 53.416668L581.45 298.45L78.55 298.45L78.55 53.416668Z" clip-rule="nonzero"/></clipPath><path stroke="#ff0000" stroke-width="2.0" stroke-linecap="butt" stroke-opacity="0.4" clip-path="url(#id_0)" d="M0 189.93799L581.45 154.1403" fill-rule="nonzero"/><path fill="#ff0000" clip-path="url(#id_0)" d="M153.8909 216.77222C153.8909 219.2575 151.87617 221.27222 149.3909 221.27222C146.90562 221.27222 144.8909 219.2575 144.8909 216.77222C144.8909 214.28694 146.90562 212.27222 149.3909 212.27222C151.87617 212.27222 153.8909 214.28694 153.8909 216.77222Z" fill-rule="nonzero"/><path fill="#ff0000" clip-path="url(#id_0)" d="M89.9539 216.77222C89.9539 219.2575 87.939186 221.27222 85.4539 221.27222C82.96862 221.27222 80.9539 219.2575 80.9539 216.77222C80.9539 214.28694 82.96862 212.27222 85.4539 212.27222C87.939186 212.27222 89.9539 214.28694 89.9539 216.77222Z" fill-rule="nonzero"/><path fill="#ff0000" clip-path="url(#id_0)" d="M329.71765 196.35278C329.71765 198.83806 327.7029 200.85278 325.21765 200.85278C322.73236 200.85278 320.71765 198.83806 320.71765 196.35278C320.71765 193.8675 322.73236 191.85278 325.21765 191.85278C327.7029 191.85278 329.71765 193.8675 329.71765 196.35278Z" fill-rule="nonzero"/><path fill="#ff0000" clip-path="url(#id_0)" d="M337.4676 196.35278C337.4676 198.83806 335.45285 200.85278 332.9676 200.85278C330.4823 200.85278 328.4676 198.83806 328.4676 196.35278C328.4676 193.8675 330.4823 191.85278 332.9676 191.85278C335.45285 191.85278 337.4676 193.8675 337.4676 196.35278Z" fill-rule="nonzero"/><path fill="#ff0000" clip-path="url(#id_0)" d="M104.969406 175.93333C104.969406 178.41861 102.95469 180.43333 100.469406 180.43333C97.98413 180.43333 95.969406 178.41861 95.969406 175.93333C95.969406 173.44806 97.98413 171.43333 100.469406 171.43333C102.95469 171.43333 104.969406 173.44806 104.969406 175.93333Z" fill-rule="nonzero"/><path fill="#ff0000" clip-path="url(#id_0)" d="M287.57736 175.93333C287.57736 178.41861 285.56262 180.43333 283.07736 180.43333C280.59207 180.43333 278.57736 178.41861 278.57736 175.93333C278.57736 173.44806 280.59207 171.43333 283.07736 171.43333C285.56262 171.43333 287.57736 173.44806 287.57736 175.93333Z" fill-rule="nonzero"/><path fill="#ff0000" clip-path="url(#id_0)" d="M215.89041 175.93333C215.89041 178.41861 213.87569 180.43333 211.39041 180.43333C208.90514 180.43333 206.89041 178.41861 206.89041 175.93333C206.89041 173.44806 208.90514 171.43333 211.39041 171.43333C213.87569 171.43333 215.89041 173.44806 215.89041 175.93333Z" fill-rule="nonzero"/><path fill="#ff0000" clip-path="url(#id_0)" d="M313.24902 175.93333C313.24902 178.41861 311.2343 180.43333 308.74902 180.43333C306.26373 180.43333 304.24902 178.41861 304.24902 175.93333C304.24902 173.44806 306.26373 171.43333 308.74902 171.43333C311.2343 171.43333 313.24902 173.44806 313.24902 175.93333Z" fill-rule="nonzero"/><path fill="#ff0000" clip-path="url(#id_0)" d="M217.8279 175.93333C217.8279 178.41861 215.81317 180.43333 213.3279 180.43333C210.84262 180.43333 208.8279 178.41861 208.8279 175.93333C208.8279 173.44806 210.84262 171.43333 213.3279 171.43333C215.81317 171.43333 217.8279 173.44806 217.8279 175.93333Z" fill-rule="nonzero"/><path fill="#ff0000" clip-path="url(#id_0)" d="M216.85916 175.93333C216.85916 178.41861 214.84444 180.43333 212.35916 180.43333C209.87387 180.43333 207.85916 178.41861 207.85916 175.93333C207.85916 173.44806 209.87387 171.43333 212.35916 171.43333C214.84444 171.43333 216.85916 173.44806 216.85916 175.93333Z" fill-rule="nonzero"/><path fill="#ff0000" clip-path="url(#id_0)" d="M280.79614 175.93333C280.79614 178.41861 278.78143 180.43333 276.29614 180.43333C273.81088 180.43333 271.79614 178.41861 271.79614 175.93333C271.79614 173.44806 273.81088 171.43333 276.29614 171.43333C278.78143 171.43333 280.79614 173.44806 280.79614 175.93333Z" fill-rule="nonzero"/><path fill="#ff0000" clip-path="url(#id_0)" d="M220.24976 175.93333C220.24976 178.41861 218.23503 180.43333 215.74976 180.43333C213.26447 180.43333 211.24976 178.41861 211.24976 175.93333C211.24976 173.44806 213.26447 171.43333 215.74976 171.43333C218.23503 171.43333 220.24976 173.44806 220.24976 175.93333Z" fill-rule="nonzero"/><path fill="#ff0000" clip-path="url(#id_0)" d="M186.82814 175.93333C186.82814 178.41861 184.81342 180.43333 182.32814 180.43333C179.84286 180.43333 177.82814 178.41861 177.82814 175.93333C177.82814 173.44806 179.84286 171.43333 182.32814 171.43333C184.81342 171.43333 186.82814 173.44806 186.82814 175.93333Z" fill-rule="nonzero"/><path fill="#ff0000" clip-path="url(#id_0)" d="M381.06097 175.93333C381.06097 178.41861 379.04626 180.43333 376.56097 180.43333C374.0757 180.43333 372.06097 178.41861 372.06097 175.93333C372.06097 173.44806 374.0757 171.43333 376.56097 171.43333C379.04626 171.43333 381.06097 173.44806 381.06097 175.93333Z" fill-rule="nonzero"/><path fill="#ff0000" clip-path="url(#id_0)" d="M225.09346 155.51389C225.09346 157.99918 223.07875 160.01389 220.59346 160.01389C218.10818 160.01389 216.09346 157.99918 216.09346 155.51389C216.09346 153.02861 218.10818 151.01389 220.59346 151.01389C223.07875 151.01389 225.09346 153.02861 225.09346 155.51389Z" fill-rule="nonzero"/><path fill="#ff0000" clip-path="url(#id_0)" d="M194.0937 155.51389C194.0937 157.99918 192.079 160.01389 189.5937 160.01389C187.10843 160.01389 185.0937 157.99918 185.0937 155.51389C185.0937 153.02861 187.10843 151.01389 189.5937 151.01389C192.079 151.01389 194.0937 153.02861 194.0937 155.51389Z" fill-rule="nonzero"/><path fill="#ff0000" clip-path="url(#id_0)" d="M318.09274 155.51389C318.09274 157.99918 316.078 160.01389 313.59274 160.01389C311.10745 160.01389 309.09274 157.99918 309.09274 155.51389C309.09274 153.02861 311.10745 151.01389 313.59274 151.01389C316.078 151.01389 318.09274 153.02861 318.09274 155.51389Z" fill-rule="nonzero"/><path fill="#ff0000" clip-path="url(#id_0)" d="M228.96843 155.51389C228.96843 157.99918 226.95372 160.01389 224.46843 160.01389C221.98315 160.01389 219.96843 157.99918 219.96843 155.51389C219.96843 153.02861 221.98315 151.01389 224.46843 151.01389C226.95372 151.01389 228.96843 153.02861 228.96843 155.51389Z" fill-rule="nonzero"/><path fill="#ff0000" clip-path="url(#id_0)" d="M187.79689 155.51389C187.79689 157.99918 185.78217 160.01389 183.29689 160.01389C180.8116 160.01389 178.79689 157.99918 178.79689 155.51389C178.79689 153.02861 180.8116 151.01389 183.29689 151.01389C185.78217 151.01389 187.79689 153.02861 187.79689 155.51389Z" fill-rule="nonzero"/><path fill="#ff0000" clip-path="url(#id_0)" d="M448.87296 155.51389C448.87296 157.99918 446.85825 160.01389 444.37296 160.01389C441.88766 160.01389 439.87296 157.99918 439.87296 155.51389C439.87296 153.02861 441.88766 151.01389 444.37296 151.01389C446.85825 151.01389 448.87296 153.02861 448.87296 155.51389Z" fill-rule="nonzero"/><path fill="#ff0000" clip-path="url(#id_0)" d="M263.84317 155.51389C263.84317 157.99918 261.82843 160.01389 259.34317 160.01389C256.85788 160.01389 254.84315 157.99918 254.84315 155.51389C254.84315 153.02861 256.85788 151.01389 259.34317 151.01389C261.82843 151.01389 263.84317 153.02861 263.84317 155.51389Z" fill-rule="nonzero"/><path fill="#424242" d="M287.98438 349.45L287.98438 340.91876L290.40625 340.91876Q291.51562 340.91876 292.35938 341.41876Q293.21875 341.90314 293.6875 342.8094Q294.15625 343.71564 294.15625 344.90314L294.15625 345.4344Q294.15625 346.65314 293.6875 347.5594Q293.23438 348.46564 292.35938 348.95Q291.5 349.4344 290.35938 349.45L287.98438 349.45ZM289.10938 341.84064L289.10938 348.52814L290.29688 348.52814Q291.59375 348.52814 292.3125 347.73126Q293.04688 346.91876 293.04688 345.41876L293.04688 344.91876Q293.04688 343.46564 292.35938 342.66876Q291.6875 341.85626 290.42188 341.84064L289.10938 341.84064ZM297.0 349.45L295.92188 349.45L295.92188 343.10626L297.0 343.10626L297.0 349.45ZM295.82812 341.4344Q295.82812 341.16876 295.98438 340.98126Q296.15625 340.79376 296.46875 340.79376Q296.78125 340.79376 296.9375 340.98126Q297.10938 341.16876 297.10938 341.4344Q297.10938 341.6844 296.9375 341.8719Q296.78125 342.04376 296.46875 342.04376Q296.15625 342.04376 295.98438 341.8719Q295.82812 341.6844 295.82812 341.4344ZM299.35938 349.45L299.35938 343.95L298.35938 343.95L298.35938 343.10626L299.35938 343.10626L299.35938 342.46564Q299.35938 341.4344 299.89062 340.8875Q300.4375 340.325 301.4375 340.325Q301.8125 340.325 302.1875 340.41876L302.125 341.3094Q301.84375 341.2469 301.54688 341.2469Q301.01562 341.2469 300.71875 341.5594Q300.4375 341.8719 300.4375 342.4344L300.4375 343.10626L301.79688 343.10626L301.79688 343.95L300.4375 343.95L300.4375 349.45L299.35938 349.45ZM303.35938 349.45L303.35938 343.95L302.35938 343.95L302.35938 343.10626L303.35938 343.10626L303.35938 342.46564Q303.35938 341.4344 303.89062 340.8875Q304.4375 340.325 305.4375 340.325Q305.8125 340.325 306.1875 340.41876L306.125 341.3094Q305.84375 341.2469 305.54688 341.2469Q305.01562 341.2469 304.71875 341.5594Q304.4375 341.8719 304.4375 342.4344L304.4375 343.10626L305.79688 343.10626L305.79688 343.95L304.4375 343.95L304.4375 349.45L303.35938 349.45ZM308.0 349.45L306.92188 349.45L306.92188 343.10626L308.0 343.10626L308.0 349.45ZM306.82812 341.4344Q306.82812 341.16876 306.98438 340.98126Q307.15625 340.79376 307.46875 340.79376Q307.78125 340.79376 307.9375 340.98126Q308.10938 341.16876 308.10938 341.4344Q308.10938 341.6844 307.9375 341.8719Q307.78125 342.04376 307.46875 342.04376Q307.15625 342.04376 306.98438 341.8719Q306.82812 341.6844 306.82812 341.4344ZM312.35938 348.6844Q312.9375 348.6844 313.375 348.34064Q313.8125 347.98126 313.85938 347.45L314.89062 347.45Q314.85938 347.9969 314.5 348.4969Q314.15625 348.98126 313.57812 349.27814Q313.01562 349.575 312.35938 349.575Q311.0625 349.575 310.29688 348.71564Q309.54688 347.84064 309.54688 346.34064L309.54688 346.15314Q309.54688 345.23126 309.875 344.5125Q310.21875 343.79376 310.84375 343.40314Q311.48438 342.9969 312.35938 342.9969Q313.42188 342.9969 314.125 343.6375Q314.84375 344.2625 314.89062 345.29376L313.85938 345.29376Q313.8125 344.66876 313.39062 344.27814Q312.96875 343.8875 312.35938 343.8875Q311.53125 343.8875 311.07812 344.48126Q310.625 345.075 310.625 346.2L310.625 346.40314Q310.625 347.4969 311.07812 348.09064Q311.53125 348.6844 312.35938 348.6844ZM319.73438 348.825Q319.10938 349.575 317.875 349.575Q316.85938 349.575 316.32812 348.98126Q315.79688 348.3875 315.79688 347.23126L315.79688 343.10626L316.875 343.10626L316.875 347.2Q316.875 348.65314 318.04688 348.65314Q319.29688 348.65314 319.70312 347.71564L319.70312 343.10626L320.79688 343.10626L320.79688 349.45L319.76562 349.45L319.73438 348.825ZM324.0 349.45L322.92188 349.45L322.92188 340.45L324.0 340.45L324.0 349.45ZM327.29688 341.575L327.29688 343.10626L328.46875 343.10626L328.46875 343.95L327.29688 343.95L327.29688 347.8719Q327.29688 348.2625 327.45312 348.45Q327.60938 348.6375 327.98438 348.6375Q328.17188 348.6375 328.5 348.575L328.5 349.45Q328.07812 349.575 327.67188 349.575Q326.95312 349.575 326.57812 349.1375Q326.20312 348.6844 326.20312 347.8719L326.20312 343.95L325.04688 343.95L325.04688 343.10626L326.20312 343.10626L326.20312 341.575L327.29688 341.575ZM331.89062 347.85626L333.375 343.10626L334.53125 343.10626L331.98438 350.4344Q331.39062 352.0125 330.10938 352.0125L329.89062 351.9969L329.5 351.91876L329.5 351.04376L329.78125 351.0594Q330.34375 351.0594 330.64062 350.84064Q330.95312 350.6219 331.15625 350.02814L331.39062 349.3719L329.125 343.10626L330.3125 343.10626L331.89062 347.85626ZM342.125 345.9969L340.10938 345.9969L340.10938 349.45L338.98438 349.45L338.98438 340.91876L341.8125 340.91876Q343.25 340.91876 344.01562 341.575Q344.79688 342.23126 344.79688 343.48126Q344.79688 344.27814 344.35938 344.8719Q343.9375 345.46564 343.17188 345.7625L345.17188 349.3719L345.17188 349.45L343.96875 349.45L342.125 345.9969ZM340.10938 345.075L341.84375 345.075Q342.6875 345.075 343.17188 344.65314Q343.67188 344.21564 343.67188 343.48126Q343.67188 342.7 343.20312 342.27814Q342.73438 341.85626 341.84375 341.84064L340.10938 341.84064L340.10938 345.075ZM349.73438 349.45Q349.64062 349.2625 349.57812 348.77814Q348.82812 349.575 347.78125 349.575Q346.84375 349.575 346.23438 349.04376Q345.64062 348.5125 345.64062 347.6844Q345.64062 346.7 346.39062 346.15314Q347.14062 345.60626 348.51562 345.60626L349.5625 345.60626L349.5625 345.10626Q349.5625 344.54376 349.21875 344.21564Q348.89062 343.8719 348.21875 343.8719Q347.64062 343.8719 347.25 344.16876Q346.85938 344.45 346.85938 344.8719L345.76562 344.8719Q345.76562 344.3875 346.09375 343.95Q346.4375 343.5125 347.01562 343.2625Q347.59375 342.9969 348.28125 342.9969Q349.39062 342.9969 350.0 343.54376Q350.625 344.09064 350.65625 345.04376L350.65625 347.96564Q350.65625 348.84064 350.875 349.35626L350.875 349.45L349.73438 349.45ZM347.9375 348.6219Q348.45312 348.6219 348.90625 348.35626Q349.35938 348.09064 349.5625 347.66876L349.5625 346.3719L348.71875 346.3719Q346.71875 346.3719 346.71875 347.54376Q346.71875 348.04376 347.0625 348.34064Q347.40625 348.6219 347.9375 348.6219ZM354.29688 341.575L354.29688 343.10626L355.46875 343.10626L355.46875 343.95L354.29688 343.95L354.29688 347.8719Q354.29688 348.2625 354.45312 348.45Q354.60938 348.6375 354.98438 348.6375Q355.17188 348.6375 355.5 348.575L355.5 349.45Q355.07812 349.575 354.67188 349.575Q353.95312 349.575 353.57812 349.1375Q353.20312 348.6844 353.20312 347.8719L353.20312 343.95L352.04688 343.95L352.04688 343.10626L353.20312 343.10626L353.20312 341.575L354.29688 341.575ZM358.0 349.45L356.92188 349.45L356.92188 343.10626L358.0 343.10626L358.0 349.45ZM356.82812 341.4344Q356.82812 341.16876 356.98438 340.98126Q357.15625 340.79376 357.46875 340.79376Q357.78125 340.79376 357.9375 340.98126Q358.10938 341.16876 358.10938 341.4344Q358.10938 341.6844 357.9375 341.8719Q357.78125 342.04376 357.46875 342.04376Q357.15625 342.04376 356.98438 341.8719Q356.82812 341.6844 356.82812 341.4344ZM360.84375 343.10626L360.875 343.90314Q361.60938 342.9969 362.78125 342.9969Q364.79688 342.9969 364.8125 345.2625L364.8125 349.45L363.71875 349.45L363.71875 345.2469Q363.71875 344.575 363.40625 344.2469Q363.10938 343.91876 362.45312 343.91876Q361.92188 343.91876 361.51562 344.2Q361.125 344.48126 360.90625 344.9344L360.90625 349.45L359.82812 349.45L359.82812 343.10626L360.84375 343.10626ZM366.5625 346.23126Q366.5625 344.7469 367.25 343.8719Q367.9375 342.9969 369.0625 342.9969Q370.21875 342.9969 370.875 343.8094L370.92188 343.10626L371.92188 343.10626L371.92188 349.29376Q371.92188 350.52814 371.1875 351.23126Q370.45312 351.95 369.23438 351.95Q368.54688 351.95 367.89062 351.65314Q367.23438 351.35626 366.89062 350.85626L367.45312 350.2Q368.14062 351.0594 369.15625 351.0594Q369.9375 351.0594 370.375 350.60626Q370.82812 350.16876 370.82812 349.35626L370.82812 348.8094Q370.17188 349.575 369.04688 349.575Q367.9375 349.575 367.25 348.6844Q366.5625 347.77814 366.5625 346.23126ZM367.65625 346.35626Q367.65625 347.41876 368.09375 348.04376Q368.53125 348.65314 369.32812 348.65314Q370.34375 348.65314 370.82812 347.71564L370.82812 344.825Q370.32812 343.91876 369.32812 343.91876Q368.54688 343.91876 368.09375 344.52814Q367.65625 345.1375 367.65625 346.35626Z" fill-rule="nonzero"/><path fill="#424242" d="M30.550013 197.69896L22.018763 197.69896L22.018763 195.27708Q22.018763 194.16771 22.518763 193.32396Q23.003138 192.46458 23.909388 191.99583Q24.815638 191.52708 26.003138 191.52708L26.534388 191.52708Q27.753138 191.52708 28.659388 191.99583Q29.565638 192.44896 30.050013 193.32396Q30.534388 194.18333 30.550013 195.32396L30.550013 197.69896ZM22.940638 196.57396L29.628138 196.57396L29.628138 195.38646Q29.628138 194.08958 28.831263 193.37083Q28.018763 192.63646 26.518763 192.63646L26.018763 192.63646Q24.565638 192.63646 23.768763 193.32396Q22.956263 193.99583 22.940638 195.26146L22.940638 196.57396ZM30.675013 187.23021Q30.675013 188.52708 29.831263 189.33958Q28.971888 190.13646 27.550013 190.13646L27.362513 190.13646Q26.409388 190.13646 25.675013 189.77708Q24.925013 189.41771 24.518763 188.77708Q24.096888 188.12083 24.096888 187.37083Q24.096888 186.13646 24.909388 185.44896Q25.721888 184.76146 27.237513 184.76146L27.690638 184.76146L27.690638 189.05833Q28.628138 189.02708 29.206263 188.51146Q29.784388 187.98021 29.784388 187.16771Q29.784388 186.60521 29.550013 186.21458Q29.315638 185.80833 28.925013 185.49583L29.440638 184.83958Q30.675013 185.63646 30.675013 187.23021ZM24.987513 187.37083Q24.987513 188.02708 25.471888 188.48021Q25.940638 188.91771 26.800013 189.01146L26.800013 185.83958L26.721888 185.83958Q25.893763 185.88646 25.440638 186.29271Q24.987513 186.68333 24.987513 187.37083ZM27.456263 178.51146Q28.893763 178.51146 29.784388 179.16771Q30.675013 179.82396 30.675013 180.96458Q30.675013 182.12083 29.940638 182.77708L32.98751 182.77708L32.98751 183.85521L24.206263 183.85521L24.206263 182.87083L24.909388 182.82396Q24.096888 182.15208 24.096888 180.98021Q24.096888 179.83958 24.956263 179.18333Q25.815638 178.51146 27.346888 178.51146L27.456263 178.51146ZM27.331263 179.58958Q26.253138 179.58958 25.643763 180.05833Q25.018763 180.51146 25.018763 181.30833Q25.018763 182.29271 25.878138 182.77708L28.909388 182.77708Q29.784388 182.29271 29.784388 181.29271Q29.784388 180.51146 29.175013 180.05833Q28.550013 179.58958 27.331263 179.58958ZM22.675013 175.38646L24.206263 175.38646L24.206263 174.21458L25.050013 174.21458L25.050013 175.38646L28.971888 175.38646Q29.362513 175.38646 29.550013 175.23021Q29.737513 175.07396 29.737513 174.69896Q29.737513 174.51146 29.675013 174.18333L30.550013 174.18333Q30.675013 174.60521 30.675013 175.01146Q30.675013 175.73021 30.237513 176.10521Q29.784388 176.48021 28.971888 176.48021L25.050013 176.48021L25.050013 177.63646L24.206263 177.63646L24.206263 176.48021L22.675013 176.48021L22.675013 175.38646ZM24.971888 171.77708Q24.096888 171.05833 24.096888 169.90208Q24.096888 167.88646 26.362513 167.87083L30.550013 167.87083L30.550013 168.96458L26.346888 168.96458Q25.675013 168.96458 25.346888 169.27708Q25.018763 169.57396 25.018763 170.23021Q25.018763 170.76146 25.300013 171.16771Q25.581263 171.55833 26.034388 171.77708L30.550013 171.77708L30.550013 172.85521L21.550013 172.85521L21.550013 171.77708L24.971888 171.77708Z" fill-rule="nonzero"/><path fill="#757575" d="M71.6125 299.3094Q71.6125 301.21564 70.95625 302.15314Q70.31563 303.075 68.925 303.075Q67.56563 303.075 66.90938 302.16876Q66.25313 301.2625 66.22188 299.45L66.22188 298.0125Q66.22188 296.1219 66.8625 295.21564Q67.51875 294.29376 68.90938 294.29376Q70.28438 294.29376 70.94063 295.1844Q71.59688 296.0594 71.6125 297.90314L71.6125 299.3094ZM70.51875 297.825Q70.51875 296.45 70.12813 295.825Q69.75313 295.1844 68.90938 295.1844Q68.08125 295.1844 67.69063 295.825Q67.31563 296.45 67.31563 297.7469L67.31563 299.48126Q67.31563 300.85626 67.70625 301.52814Q68.1125 302.1844 68.925 302.1844Q69.72188 302.1844 70.1125 301.5594Q70.50313 300.9344 70.51875 299.60626L70.51875 297.825Z" fill-rule="nonzero"/><path fill="#757575" d="M71.84688 262.1111L66.25313 262.1111L66.25313 261.32986L69.20625 258.0486Q69.8625 257.2986 70.1125 256.8455Q70.3625 256.37674 70.3625 255.87674Q70.3625 255.20486 69.95625 254.78299Q69.56563 254.34549 68.87813 254.34549Q68.08125 254.34549 67.62813 254.81424Q67.175 255.26736 67.175 256.0955L66.09688 256.0955Q66.09688 254.90799 66.84688 254.18924Q67.6125 253.45486 68.87813 253.45486Q70.08125 253.45486 70.76875 254.07986Q71.45625 254.70486 71.45625 255.75174Q71.45625 257.00174 69.84688 258.75174L67.56563 261.2205L71.84688 261.2205L71.84688 262.1111Z" fill-rule="nonzero"/><path fill="#757575" d="M70.83125 218.41284L72.01875 218.41284L72.01875 219.28784L70.83125 219.28784L70.83125 221.27222L69.75313 221.27222L69.75313 219.28784L65.8625 219.28784L65.8625 218.64722L69.675 212.74097L70.83125 212.74097L70.83125 218.41284ZM67.09688 218.41284L69.75313 218.41284L69.75313 214.22534L69.6125 214.45972L67.09688 218.41284Z" fill-rule="nonzero"/><path fill="#757575" d="M70.51875 171.90208L70.51875 172.80833L70.31563 172.80833Q69.05 172.83958 68.3 173.57396Q67.55 174.29271 67.425 175.60521Q68.1125 174.83958 69.26875 174.83958Q70.37813 174.83958 71.05 175.62083Q71.72188 176.40208 71.72188 177.65208Q71.72188 178.96458 71.00313 179.76146Q70.28438 180.55833 69.06563 180.55833Q67.84688 180.55833 67.08125 179.62083Q66.33125 178.66771 66.33125 177.18333L66.33125 176.77708Q66.33125 174.41771 67.33125 173.16771Q68.33125 171.91771 70.31563 171.90208L70.51875 171.90208ZM69.09688 175.74583Q68.53438 175.74583 68.06563 176.07396Q67.59688 176.40208 67.40938 176.91771L67.40938 177.30833Q67.40938 178.37083 67.87813 179.01146Q68.3625 179.65208 69.06563 179.65208Q69.8 179.65208 70.22188 179.12083Q70.64375 178.57396 70.64375 177.69896Q70.64375 176.82396 70.22188 176.29271Q69.8 175.74583 69.09688 175.74583Z" fill-rule="nonzero"/><path fill="#757575" d="M71.44063 133.28195Q71.44063 133.92258 71.09688 134.42258Q70.75313 134.92258 70.19063 135.20383Q70.84688 135.48508 71.2375 136.04758Q71.62813 136.59445 71.62813 137.29758Q71.62813 138.39133 70.87813 139.0632Q70.14375 139.71945 68.925 139.71945Q67.69063 139.71945 66.94063 139.0632Q66.20625 138.39133 66.20625 137.29758Q66.20625 136.59445 66.58125 136.04758Q66.95625 135.48508 67.62813 135.20383Q67.06563 134.92258 66.7375 134.42258Q66.40938 133.92258 66.40938 133.28195Q66.40938 132.20383 67.09688 131.57883Q67.78438 130.9382 68.925 130.9382Q70.05 130.9382 70.7375 131.57883Q71.44063 132.20383 71.44063 133.28195ZM70.55 137.26633Q70.55 136.54758 70.09688 136.11008Q69.64375 135.65695 68.90938 135.65695Q68.175 135.65695 67.72188 136.11008Q67.28438 136.54758 67.28438 137.28195Q67.28438 138.0007 67.72188 138.42258Q68.15938 138.82883 68.925 138.82883Q69.675 138.82883 70.1125 138.40695Q70.55 137.98508 70.55 137.26633ZM68.925 131.82883Q68.28438 131.82883 67.87813 132.23508Q67.4875 132.6257 67.4875 133.3132Q67.4875 133.95383 67.87813 134.36008Q68.26875 134.76633 68.90938 134.76633Q69.56563 134.76633 69.95625 134.36008Q70.34688 133.95383 70.34688 133.3132Q70.34688 132.65695 69.94063 132.2507Q69.53438 131.82883 68.925 131.82883Z" fill-rule="nonzero"/><path fill="#757575" d="M62.815624 98.755554L61.7375 98.755554L61.7375 91.536804L59.55 92.33368L59.55 91.349304L62.659374 90.17743L62.815624 90.17743L62.815624 98.755554ZM71.6125 95.11493Q71.6125 97.02118 70.95625 97.95868Q70.31563 98.880554 68.925 98.880554Q67.56563 98.880554 66.90938 97.974304Q66.25313 97.068054 66.22188 95.255554L66.22188 93.818054Q66.22188 91.92743 66.8625 91.02118Q67.51875 90.099304 68.90938 90.099304Q70.28438 90.099304 70.94063 90.98993Q71.59688 91.86493 71.6125 93.70868L71.6125 95.11493ZM70.51875 93.630554Q70.51875 92.255554 70.12813 91.630554Q69.75313 90.98993 68.90938 90.98993Q68.08125 90.98993 67.69063 91.630554Q67.31563 92.255554 67.31563 93.55243L67.31563 95.286804Q67.31563 96.661804 67.70625 97.33368Q68.1125 97.98993 68.925 97.98993Q69.72188 97.98993 70.1125 97.36493Q70.50313 96.73993 70.51875 95.411804L70.51875 93.630554Z" fill-rule="nonzero"/><path fill="#757575" d="M62.815624 57.916668L61.7375 57.916668L61.7375 50.697918L59.55 51.494793L59.55 50.510418L62.659374 49.338543L62.815624 49.338543L62.815624 57.916668ZM71.84688 57.916668L66.25313 57.916668L66.25313 57.135418L69.20625 53.854168Q69.8625 53.104168 70.1125 52.651043Q70.3625 52.182293 70.3625 51.682293Q70.3625 51.010418 69.95625 50.588543Q69.56563 50.151043 68.87813 50.151043Q68.08125 50.151043 67.62813 50.619793Q67.175 51.072918 67.175 51.901043L66.09688 51.901043Q66.09688 50.713543 66.84688 49.994793Q67.6125 49.260418 68.87813 49.260418Q70.08125 49.260418 70.76875 49.885418Q71.45625 50.510418 71.45625 51.557293Q71.45625 52.807293 69.84688 54.557293L67.56563 57.026043L71.84688 57.026043L71.84688 57.916668Z" fill-rule="nonzero"/><path fill="#757575" d="M135.78156 316.45L134.70343 316.45L134.70343 309.23126L132.51593 310.02814L132.51593 309.04376L135.6253 307.8719L135.78156 307.8719L135.78156 316.45ZM144.57843 312.8094Q144.57843 314.71564 143.92218 315.65314Q143.28156 316.575 141.89093 316.575Q140.53156 316.575 139.8753 315.66876Q139.21906 314.7625 139.1878 312.95L139.1878 311.5125Q139.1878 309.6219 139.82843 308.71564Q140.48468 307.79376 141.8753 307.79376Q143.2503 307.79376 143.90656 308.6844Q144.5628 309.5594 144.57843 311.40314L144.57843 312.8094ZM143.48468 311.325Q143.48468 309.95 143.09406 309.325Q142.71906 308.6844 141.8753 308.6844Q141.04718 308.6844 140.65656 309.325Q140.28156 309.95 140.28156 311.2469L140.28156 312.98126Q140.28156 314.35626 140.67218 315.02814Q141.07843 315.6844 141.89093 315.6844Q142.6878 315.6844 143.07843 315.0594Q143.46906 314.4344 143.48468 313.10626L143.48468 311.325ZM151.57843 312.8094Q151.57843 314.71564 150.92218 315.65314Q150.28156 316.575 148.89093 316.575Q147.53156 316.575 146.8753 315.66876Q146.21906 314.7625 146.1878 312.95L146.1878 311.5125Q146.1878 309.6219 146.82843 308.71564Q147.48468 307.79376 148.8753 307.79376Q150.2503 307.79376 150.90656 308.6844Q151.5628 309.5594 151.57843 311.40314L151.57843 312.8094ZM150.48468 311.325Q150.48468 309.95 150.09406 309.325Q149.71906 308.6844 148.8753 308.6844Q148.04718 308.6844 147.65656 309.325Q147.28156 309.95 147.28156 311.2469L147.28156 312.98126Q147.28156 314.35626 147.67218 315.02814Q148.07843 315.6844 148.89093 315.6844Q149.6878 315.6844 150.07843 315.0594Q150.46906 314.4344 150.48468 313.10626L150.48468 311.325ZM158.57843 312.8094Q158.57843 314.71564 157.92218 315.65314Q157.28156 316.575 155.89093 316.575Q154.53156 316.575 153.8753 315.66876Q153.21906 314.7625 153.1878 312.95L153.1878 311.5125Q153.1878 309.6219 153.82843 308.71564Q154.48468 307.79376 155.8753 307.79376Q157.2503 307.79376 157.90656 308.6844Q158.5628 309.5594 158.57843 311.40314L158.57843 312.8094ZM157.48468 311.325Q157.48468 309.95 157.09406 309.325Q156.71906 308.6844 155.8753 308.6844Q155.04718 308.6844 154.65656 309.325Q154.28156 309.95 154.28156 311.2469L154.28156 312.98126Q154.28156 314.35626 154.67218 315.02814Q155.07843 315.6844 155.89093 315.6844Q156.6878 315.6844 157.07843 315.0594Q157.46906 314.4344 157.48468 313.10626L157.48468 311.325Z" fill-rule="nonzero"/><path fill="#757575" d="M232.65579 316.45L231.57767 316.45L231.57767 309.23126L229.39017 310.02814L229.39017 309.04376L232.49954 307.8719L232.65579 307.8719L232.65579 316.45ZM241.68704 316.45L236.09329 316.45L236.09329 315.66876L239.04642 312.3875Q239.70267 311.6375 239.95267 311.1844Q240.20267 310.71564 240.20267 310.21564Q240.20267 309.54376 239.79642 309.1219Q239.40579 308.6844 238.71829 308.6844Q237.92142 308.6844 237.46829 309.15314Q237.01517 309.60626 237.01517 310.4344L235.93704 310.4344Q235.93704 309.2469 236.68704 308.52814Q237.45267 307.79376 238.71829 307.79376Q239.92142 307.79376 240.60892 308.41876Q241.29642 309.04376 241.29642 310.09064Q241.29642 311.34064 239.68704 313.09064L237.40579 315.5594L241.68704 315.5594L241.68704 316.45ZM248.45267 312.8094Q248.45267 314.71564 247.79642 315.65314Q247.15579 316.575 245.76517 316.575Q244.40579 316.575 243.74954 315.66876Q243.09329 314.7625 243.06204 312.95L243.06204 311.5125Q243.06204 309.6219 243.70267 308.71564Q244.35892 307.79376 245.74954 307.79376Q247.12454 307.79376 247.78079 308.6844Q248.43704 309.5594 248.45267 311.40314L248.45267 312.8094ZM247.35892 311.325Q247.35892 309.95 246.96829 309.325Q246.59329 308.6844 245.74954 308.6844Q244.92142 308.6844 244.53079 309.325Q244.15579 309.95 244.15579 311.2469L244.15579 312.98126Q244.15579 314.35626 244.54642 315.02814Q244.95267 315.6844 245.76517 315.6844Q246.56204 315.6844 246.95267 315.0594Q247.34329 314.4344 247.35892 313.10626L247.35892 311.325ZM255.45267 312.8094Q255.45267 314.71564 254.79642 315.65314Q254.15579 316.575 252.76517 316.575Q251.40579 316.575 250.74954 315.66876Q250.09329 314.7625 250.06204 312.95L250.06204 311.5125Q250.06204 309.6219 250.70267 308.71564Q251.35892 307.79376 252.74954 307.79376Q254.12454 307.79376 254.78079 308.6844Q255.43704 309.5594 255.45267 311.40314L255.45267 312.8094ZM254.35892 311.325Q254.35892 309.95 253.96829 309.325Q253.59329 308.6844 252.74954 308.6844Q251.92142 308.6844 251.53079 309.325Q251.15579 309.95 251.15579 311.2469L251.15579 312.98126Q251.15579 314.35626 251.54642 315.02814Q251.95267 315.6844 252.76517 315.6844Q253.56204 315.6844 253.95267 315.0594Q254.34329 314.4344 254.35892 313.10626L254.35892 311.325Z" fill-rule="nonzero"/><path fill="#757575" d="M329.53003 316.45L328.4519 316.45L328.4519 309.23126L326.2644 310.02814L326.2644 309.04376L329.37378 307.8719L329.53003 307.8719L329.53003 316.45ZM337.54565 313.59064L338.73315 313.59064L338.73315 314.46564L337.54565 314.46564L337.54565 316.45L336.46753 316.45L336.46753 314.46564L332.5769 314.46564L332.5769 313.825L336.3894 307.91876L337.54565 307.91876L337.54565 313.59064ZM333.81128 313.59064L336.46753 313.59064L336.46753 309.40314L336.3269 309.6375L333.81128 313.59064ZM345.3269 312.8094Q345.3269 314.71564 344.67065 315.65314Q344.03003 316.575 342.6394 316.575Q341.28003 316.575 340.62378 315.66876Q339.96753 314.7625 339.93628 312.95L339.93628 311.5125Q339.93628 309.6219 340.5769 308.71564Q341.23315 307.79376 342.62378 307.79376Q343.99878 307.79376 344.65503 308.6844Q345.31128 309.5594 345.3269 311.40314L345.3269 312.8094ZM344.23315 311.325Q344.23315 309.95 343.84253 309.325Q343.46753 308.6844 342.62378 308.6844Q341.79565 308.6844 341.40503 309.325Q341.03003 309.95 341.03003 311.2469L341.03003 312.98126Q341.03003 314.35626 341.42065 315.02814Q341.8269 315.6844 342.6394 315.6844Q343.43628 315.6844 343.8269 315.0594Q344.21753 314.4344 344.23315 313.10626L344.23315 311.325ZM352.3269 312.8094Q352.3269 314.71564 351.67065 315.65314Q351.03003 316.575 349.6394 316.575Q348.28003 316.575 347.62378 315.66876Q346.96753 314.7625 346.93628 312.95L346.93628 311.5125Q346.93628 309.6219 347.5769 308.71564Q348.23315 307.79376 349.62378 307.79376Q350.99878 307.79376 351.65503 308.6844Q352.31128 309.5594 352.3269 311.40314L352.3269 312.8094ZM351.23315 311.325Q351.23315 309.95 350.84253 309.325Q350.46753 308.6844 349.62378 308.6844Q348.79565 308.6844 348.40503 309.325Q348.03003 309.95 348.03003 311.2469L348.03003 312.98126Q348.03003 314.35626 348.42065 315.02814Q348.8269 315.6844 349.6394 315.6844Q350.43628 315.6844 350.8269 315.0594Q351.21753 314.4344 351.23315 313.10626L351.23315 311.325Z" fill-rule="nonzero"/><path fill="#757575" d="M426.40427 316.45L425.32614 316.45L425.32614 309.23126L423.13864 310.02814L423.13864 309.04376L426.24802 307.8719L426.40427 307.8719L426.40427 316.45ZM434.1074 307.91876L434.1074 308.825L433.90427 308.825Q432.63864 308.85626 431.88864 309.59064Q431.13864 310.3094 431.01364 311.6219Q431.70114 310.85626 432.8574 310.85626Q433.96677 310.85626 434.63864 311.6375Q435.31052 312.41876 435.31052 313.66876Q435.31052 314.98126 434.59177 315.77814Q433.87302 316.575 432.65427 316.575Q431.43552 316.575 430.6699 315.6375Q429.9199 314.6844 429.9199 313.2L429.9199 312.79376Q429.9199 310.4344 430.9199 309.1844Q431.9199 307.9344 433.90427 307.91876L434.1074 307.91876ZM432.68552 311.7625Q432.12302 311.7625 431.65427 312.09064Q431.18552 312.41876 430.99802 312.9344L430.99802 313.325Q430.99802 314.3875 431.46677 315.02814Q431.95114 315.66876 432.65427 315.66876Q433.38864 315.66876 433.81052 315.1375Q434.2324 314.59064 434.2324 313.71564Q434.2324 312.84064 433.81052 312.3094Q433.38864 311.7625 432.68552 311.7625ZM442.20114 312.8094Q442.20114 314.71564 441.5449 315.65314Q440.90427 316.575 439.51364 316.575Q438.15427 316.575 437.49802 315.66876Q436.84177 314.7625 436.81052 312.95L436.81052 311.5125Q436.81052 309.6219 437.45114 308.71564Q438.1074 307.79376 439.49802 307.79376Q440.87302 307.79376 441.52927 308.6844Q442.18552 309.5594 442.20114 311.40314L442.20114 312.8094ZM441.1074 311.325Q441.1074 309.95 440.71677 309.325Q440.34177 308.6844 439.49802 308.6844Q438.6699 308.6844 438.27927 309.325Q437.90427 309.95 437.90427 311.2469L437.90427 312.98126Q437.90427 314.35626 438.2949 315.02814Q438.70114 315.6844 439.51364 315.6844Q440.31052 315.6844 440.70114 315.0594Q441.09177 314.4344 441.1074 313.10626L441.1074 311.325ZM449.20114 312.8094Q449.20114 314.71564 448.5449 315.65314Q447.90427 316.575 446.51364 316.575Q445.15427 316.575 444.49802 315.66876Q443.84177 314.7625 443.81052 312.95L443.81052 311.5125Q443.81052 309.6219 444.45114 308.71564Q445.1074 307.79376 446.49802 307.79376Q447.87302 307.79376 448.52927 308.6844Q449.18552 309.5594 449.20114 311.40314L449.20114 312.8094ZM448.1074 311.325Q448.1074 309.95 447.71677 309.325Q447.34177 308.6844 446.49802 308.6844Q445.6699 308.6844 445.27927 309.325Q444.90427 309.95 444.90427 311.2469L444.90427 312.98126Q444.90427 314.35626 445.2949 315.02814Q445.70114 315.6844 446.51364 315.6844Q447.31052 315.6844 447.70114 315.0594Q448.09177 314.4344 448.1074 313.10626L448.1074 311.325Z" fill-rule="nonzero"/><path fill="#757575" d="M523.2785 316.45L522.2004 316.45L522.2004 309.23126L520.0129 310.02814L520.0129 309.04376L523.12225 307.8719L523.2785 307.8719L523.2785 316.45ZM531.9035 310.1375Q531.9035 310.77814 531.55975 311.27814Q531.216 311.77814 530.6535 312.0594Q531.30975 312.34064 531.7004 312.90314Q532.091 313.45 532.091 314.15314Q532.091 315.2469 531.341 315.91876Q530.6066 316.575 529.3879 316.575Q528.1535 316.575 527.4035 315.91876Q526.6691 315.2469 526.6691 314.15314Q526.6691 313.45 527.0441 312.90314Q527.4191 312.34064 528.091 312.0594Q527.5285 311.77814 527.2004 311.27814Q526.87225 310.77814 526.87225 310.1375Q526.87225 309.0594 527.55975 308.4344Q528.24725 307.79376 529.3879 307.79376Q530.5129 307.79376 531.2004 308.4344Q531.9035 309.0594 531.9035 310.1375ZM531.0129 314.1219Q531.0129 313.40314 530.55975 312.96564Q530.1066 312.5125 529.37225 312.5125Q528.6379 312.5125 528.18475 312.96564Q527.74725 313.40314 527.74725 314.1375Q527.74725 314.85626 528.18475 315.27814Q528.62225 315.6844 529.3879 315.6844Q530.1379 315.6844 530.5754 315.2625Q531.0129 314.84064 531.0129 314.1219ZM529.3879 308.6844Q528.74725 308.6844 528.341 309.09064Q527.9504 309.48126 527.9504 310.16876Q527.9504 310.8094 528.341 311.21564Q528.7316 311.6219 529.37225 311.6219Q530.0285 311.6219 530.4191 311.21564Q530.80975 310.8094 530.80975 310.16876Q530.80975 309.5125 530.4035 309.10626Q529.99725 308.6844 529.3879 308.6844ZM539.0754 312.8094Q539.0754 314.71564 538.4191 315.65314Q537.7785 316.575 536.3879 316.575Q535.0285 316.575 534.37225 315.66876Q533.716 314.7625 533.68475 312.95L533.68475 311.5125Q533.68475 309.6219 534.3254 308.71564Q534.9816 307.79376 536.37225 307.79376Q537.74725 307.79376 538.4035 308.6844Q539.05975 309.5594 539.0754 311.40314L539.0754 312.8094ZM537.9816 311.325Q537.9816 309.95 537.591 309.325Q537.216 308.6844 536.37225 308.6844Q535.5441 308.6844 535.1535 309.325Q534.7785 309.95 534.7785 311.2469L534.7785 312.98126Q534.7785 314.35626 535.1691 315.02814Q535.5754 315.6844 536.3879 315.6844Q537.18475 315.6844 537.5754 315.0594Q537.966 314.4344 537.9816 313.10626L537.9816 311.325ZM546.0754 312.8094Q546.0754 314.71564 545.4191 315.65314Q544.7785 316.575 543.3879 316.575Q542.0285 316.575 541.37225 315.66876Q540.716 314.7625 540.68475 312.95L540.68475 311.5125Q540.68475 309.6219 541.3254 308.71564Q541.9816 307.79376 543.37225 307.79376Q544.74725 307.79376 545.4035 308.6844Q546.05975 309.5594 546.0754 311.40314L546.0754 312.8094ZM544.9816 311.325Q544.9816 309.95 544.591 309.325Q544.216 308.6844 543.37225 308.6844Q542.5441 308.6844 542.1535 309.325Q541.7785 309.95 541.7785 311.2469L541.7785 312.98126Q541.7785 314.35626 542.1691 315.02814Q542.5754 315.6844 543.3879 315.6844Q544.18475 315.6844 544.5754 315.0594Q544.966 314.4344 544.9816 313.10626L544.9816 311.325Z" fill-rule="nonzero"/><path fill="#ff0000" d="M233.0 26.05C233.0 29.363708 230.3137 32.05 227.0 32.05C223.6863 32.05 221.0 29.363708 221.0 26.05C221.0 22.736292 223.6863 20.05 227.0 20.05C230.3137 20.05 233.0 22.736292 233.0 26.05Z" fill-rule="nonzero"/><path fill="#757575" d="M244.5 26.753124Q243.0625 26.33125 242.39062 25.721874Q241.73438 25.1125 241.73438 24.221874Q241.73438 23.221874 242.53125 22.565624Q243.34375 21.89375 244.64062 21.89375Q245.51562 21.89375 246.20312 22.2375Q246.89062 22.58125 247.26562 23.175Q247.65625 23.76875 247.65625 24.4875L246.51562 24.4875Q246.51562 23.70625 246.01562 23.26875Q245.53125 22.83125 244.64062 22.83125Q243.8125 22.83125 243.34375 23.20625Q242.875 23.565624 242.875 24.20625Q242.875 24.7375 243.3125 25.096874Q243.76562 25.45625 244.82812 25.753124Q245.89062 26.05 246.48438 26.409374Q247.09375 26.76875 247.375 27.253124Q247.67188 27.7375 247.67188 28.378124Q247.67188 29.425 246.85938 30.05Q246.04688 30.675 244.70312 30.675Q243.8125 30.675 243.04688 30.33125Q242.29688 29.9875 241.875 29.409374Q241.46875 28.815624 241.46875 28.08125L242.59375 28.08125Q242.59375 28.846874 243.17188 29.3Q243.75 29.753124 244.70312 29.753124Q245.59375 29.753124 246.0625 29.39375Q246.53125 29.01875 246.53125 28.39375Q246.53125 27.76875 246.09375 27.425Q245.65625 27.08125 244.5 26.753124ZM250.0 30.55L248.92188 30.55L248.92188 24.20625L250.0 24.20625L250.0 30.55ZM248.82812 22.534374Q248.82812 22.26875 248.98438 22.08125Q249.15625 21.89375 249.46875 21.89375Q249.78125 21.89375 249.9375 22.08125Q250.10938 22.26875 250.10938 22.534374Q250.10938 22.784374 249.9375 22.971874Q249.78125 23.14375 249.46875 23.14375Q249.15625 23.14375 248.98438 22.971874Q248.82812 22.784374 248.82812 22.534374ZM251.5625 27.33125Q251.5625 25.8625 252.25 24.9875Q252.9375 24.096874 254.0625 24.096874Q255.17188 24.096874 255.82812 24.846874L255.82812 21.55L256.90625 21.55L256.90625 30.55L255.90625 30.55L255.85938 29.8625Q255.20312 30.675 254.04688 30.675Q252.95312 30.675 252.25 29.76875Q251.5625 28.8625 251.5625 27.409374L251.5625 27.33125ZM252.64062 27.45625Q252.64062 28.534374 253.07812 29.14375Q253.53125 29.753124 254.3125 29.753124Q255.34375 29.753124 255.82812 28.815624L255.82812 25.909374Q255.34375 25.01875 254.32812 25.01875Q253.53125 25.01875 253.07812 25.628124Q252.64062 26.2375 252.64062 27.45625ZM261.45312 30.675Q260.15625 30.675 259.34375 29.83125Q258.54688 28.971874 258.54688 27.55L258.54688 27.3625Q258.54688 26.409374 258.90625 25.675Q259.26562 24.925 259.90625 24.51875Q260.5625 24.096874 261.3125 24.096874Q262.54688 24.096874 263.23438 24.909374Q263.92188 25.721874 263.92188 27.2375L263.92188 27.690624L259.625 27.690624Q259.65625 28.628124 260.17188 29.20625Q260.70312 29.784374 261.51562 29.784374Q262.07812 29.784374 262.46875 29.55Q262.875 29.315624 263.1875 28.925L263.84375 29.440624Q263.04688 30.675 261.45312 30.675ZM261.3125 24.9875Q260.65625 24.9875 260.20312 25.471874Q259.76562 25.940624 259.67188 26.8L262.84375 26.8L262.84375 26.721874Q262.79688 25.89375 262.39062 25.440624Q262.0 24.9875 261.3125 24.9875Z" fill-rule="nonzero"/><path stroke="#ff0000" stroke-width="4.0" stroke-linecap="butt" stroke-opacity="0.4" d="M280.0 26.05L292.0 26.05" fill-rule="nonzero"/><path fill="#757575" d="M302.125 29.628124L306.17188 29.628124L306.17188 30.55L300.98438 30.55L300.98438 22.01875L302.125 22.01875L302.125 29.628124ZM308.0 30.55L306.92188 30.55L306.92188 24.20625L308.0 24.20625L308.0 30.55ZM306.82812 22.534374Q306.82812 22.26875 306.98438 22.08125Q307.15625 21.89375 307.46875 21.89375Q307.78125 21.89375 307.9375 22.08125Q308.10938 22.26875 308.10938 22.534374Q308.10938 22.784374 307.9375 22.971874Q307.78125 23.14375 307.46875 23.14375Q307.15625 23.14375 306.98438 22.971874Q306.82812 22.784374 306.82812 22.534374ZM310.84375 24.20625L310.875 25.003124Q311.60938 24.096874 312.78125 24.096874Q314.79688 24.096874 314.8125 26.3625L314.8125 30.55L313.71875 30.55L313.71875 26.346874Q313.71875 25.675 313.40625 25.346874Q313.10938 25.01875 312.45312 25.01875Q311.92188 25.01875 311.51562 25.3Q311.125 25.58125 310.90625 26.034374L310.90625 30.55L309.82812 30.55L309.82812 24.20625L310.84375 24.20625ZM319.45312 30.675Q318.15625 30.675 317.34375 29.83125Q316.54688 28.971874 316.54688 27.55L316.54688 27.3625Q316.54688 26.409374 316.90625 25.675Q317.26562 24.925 317.90625 24.51875Q318.5625 24.096874 319.3125 24.096874Q320.54688 24.096874 321.23438 24.909374Q321.92188 25.721874 321.92188 27.2375L321.92188 27.690624L317.625 27.690624Q317.65625 28.628124 318.17188 29.20625Q318.70312 29.784374 319.51562 29.784374Q320.07812 29.784374 320.46875 29.55Q320.875 29.315624 321.1875 28.925L321.84375 29.440624Q321.04688 30.675 319.45312 30.675ZM319.3125 24.9875Q318.65625 24.9875 318.20312 25.471874Q317.76562 25.940624 317.67188 26.8L320.84375 26.8L320.84375 26.721874Q320.79688 25.89375 320.39062 25.440624Q320.0 24.9875 319.3125 24.9875ZM325.53125 27.315624Q325.53125 26.39375 325.89062 25.64375Q326.26562 24.89375 326.92188 24.503124Q327.57812 24.096874 328.40625 24.096874Q329.70312 24.096874 330.5 24.9875Q331.3125 25.878124 331.3125 27.378124L331.3125 27.45625Q331.3125 28.378124 330.95312 29.1125Q330.59375 29.846874 329.9375 30.26875Q329.28125 30.675 328.42188 30.675Q327.14062 30.675 326.32812 29.784374Q325.53125 28.878124 325.53125 27.39375L325.53125 27.315624ZM326.625 27.45625Q326.625 28.503124 327.10938 29.14375Q327.60938 29.784374 328.42188 29.784374Q329.25 29.784374 329.73438 29.14375Q330.21875 28.4875 330.21875 27.315624Q330.21875 26.284374 329.71875 25.64375Q329.23438 24.9875 328.40625 24.9875Q327.60938 24.9875 327.10938 25.628124Q326.625 26.253124 326.625 27.45625ZM333.35938 30.55L333.35938 25.05L332.35938 25.05L332.35938 24.20625L333.35938 24.20625L333.35938 23.565624Q333.35938 22.534374 333.89062 21.9875Q334.4375 21.425 335.4375 21.425Q335.8125 21.425 336.1875 21.51875L336.125 22.409374Q335.84375 22.346874 335.54688 22.346874Q335.01562 22.346874 334.71875 22.659374Q334.4375 22.971874 334.4375 23.534374L334.4375 24.20625L335.79688 24.20625L335.79688 25.05L334.4375 25.05L334.4375 30.55L333.35938 30.55ZM339.98438 30.55L339.98438 22.01875L342.78125 22.01875Q344.17188 22.01875 344.85938 22.596874Q345.5625 23.159374 345.5625 24.284374Q345.5625 24.89375 345.21875 25.3625Q344.89062 25.815624 344.29688 26.065624Q345.0 26.253124 345.39062 26.8Q345.79688 27.33125 345.79688 28.08125Q345.79688 29.2375 345.04688 29.89375Q344.3125 30.55 342.95312 30.55L339.98438 30.55ZM341.10938 26.565624L341.10938 29.628124L342.96875 29.628124Q343.76562 29.628124 344.21875 29.221874Q344.67188 28.815624 344.67188 28.096874Q344.67188 26.565624 342.98438 26.565624L341.10938 26.565624ZM341.10938 25.659374L342.8125 25.659374Q343.54688 25.659374 343.98438 25.3Q344.4375 24.925 344.4375 24.284374Q344.4375 23.58125 344.03125 23.26875Q343.625 22.940624 342.78125 22.940624L341.10938 22.940624L341.10938 25.659374ZM349.45312 30.675Q348.15625 30.675 347.34375 29.83125Q346.54688 28.971874 346.54688 27.55L346.54688 27.3625Q346.54688 26.409374 346.90625 25.675Q347.26562 24.925 347.90625 24.51875Q348.5625 24.096874 349.3125 24.096874Q350.54688 24.096874 351.23438 24.909374Q351.92188 25.721874 351.92188 27.2375L351.92188 27.690624L347.625 27.690624Q347.65625 28.628124 348.17188 29.20625Q348.70312 29.784374 349.51562 29.784374Q350.07812 29.784374 350.46875 29.55Q350.875 29.315624 351.1875 28.925L351.84375 29.440624Q351.04688 30.675 349.45312 30.675ZM349.3125 24.9875Q348.65625 24.9875 348.20312 25.471874Q347.76562 25.940624 347.67188 26.8L350.84375 26.8L350.84375 26.721874Q350.79688 25.89375 350.39062 25.440624Q350.0 24.9875 349.3125 24.9875ZM356.51562 28.8625Q356.51562 28.425 356.17188 28.190624Q355.84375 27.940624 355.01562 27.76875Q354.20312 27.596874 353.71875 27.346874Q353.23438 27.096874 353.0 26.76875Q352.78125 26.425 352.78125 25.95625Q352.78125 25.175 353.4375 24.64375Q354.09375 24.096874 355.125 24.096874Q356.20312 24.096874 356.85938 24.659374Q357.53125 25.20625 357.53125 26.065624L356.45312 26.065624Q356.45312 25.628124 356.0625 25.315624Q355.6875 24.9875 355.125 24.9875Q354.53125 24.9875 354.1875 25.253124Q353.85938 25.503124 353.85938 25.909374Q353.85938 26.3 354.17188 26.503124Q354.48438 26.70625 355.29688 26.89375Q356.10938 27.065624 356.60938 27.315624Q357.10938 27.565624 357.34375 27.925Q357.59375 28.284374 357.59375 28.784374Q357.59375 29.64375 356.90625 30.159374Q356.23438 30.675 355.15625 30.675Q354.39062 30.675 353.79688 30.409374Q353.21875 30.128124 352.89062 29.64375Q352.5625 29.159374 352.5625 28.596874L353.64062 28.596874Q353.67188 29.14375 354.07812 29.471874Q354.48438 29.784374 355.15625 29.784374Q355.76562 29.784374 356.14062 29.534374Q356.51562 29.284374 356.51562 28.8625ZM360.29688 22.675L360.29688 24.20625L361.46875 24.20625L361.46875 25.05L360.29688 25.05L360.29688 28.971874Q360.29688 29.3625 360.45312 29.55Q360.60938 29.7375 360.98438 29.7375Q361.17188 29.7375 361.5 29.675L361.5 30.55Q361.07812 30.675 360.67188 30.675Q359.95312 30.675 359.57812 30.2375Q359.20312 29.784374 359.20312 28.971874L359.20312 25.05L358.04688 25.05L358.04688 24.20625L359.20312 24.20625L359.20312 22.675L360.29688 22.675ZM370.70312 26.784374L367.10938 26.784374L367.10938 30.55L365.98438 30.55L365.98438 22.01875L371.28125 22.01875L371.28125 22.940624L367.10938 22.940624L367.10938 25.8625L370.70312 25.8625L370.70312 26.784374ZM374.0 30.55L372.92188 30.55L372.92188 24.20625L374.0 24.20625L374.0 30.55ZM372.82812 22.534374Q372.82812 22.26875 372.98438 22.08125Q373.15625 21.89375 373.46875 21.89375Q373.78125 21.89375 373.9375 22.08125Q374.10938 22.26875 374.10938 22.534374Q374.10938 22.784374 373.9375 22.971874Q373.78125 23.14375 373.46875 23.14375Q373.15625 23.14375 372.98438 22.971874Q372.82812 22.784374 372.82812 22.534374ZM377.29688 22.675L377.29688 24.20625L378.46875 24.20625L378.46875 25.05L377.29688 25.05L377.29688 28.971874Q377.29688 29.3625 377.45312 29.55Q377.60938 29.7375 377.98438 29.7375Q378.17188 29.7375 378.5 29.675L378.5 30.55Q378.07812 30.675 377.67188 30.675Q376.95312 30.675 376.57812 30.2375Q376.20312 29.784374 376.20312 28.971874L376.20312 25.05L375.04688 25.05L375.04688 24.20625L376.20312 24.20625L376.20312 22.675L377.29688 22.675Z" fill-rule="nonzero"/></svg>